<?xml version="1.0" encoding="UTF-8"?>
<svg width="64.64" height="64.64" version="1.1" viewBox="0 0 64.64 64.64" xmlns="http://www.w3.org/2000/svg" xmlns:cc="http://creativecommons.org/ns#" xmlns:dc="http://purl.org/dc/elements/1.1/" xmlns:rdf="http://www.w3.org/1999/02/22-rdf-syntax-ns#">
 <metadata>
  <rdf:RDF>
   <cc:Work rdf:about="">
    <dc:format>image/svg+xml</dc:format>
    <dc:type rdf:resource="http://purl.org/dc/dcmitype/StillImage"/>
    <dc:title/>
   </cc:Work>
  </rdf:RDF>
 </metadata>
 <g transform="translate(.28586 .10717)" stroke-width=".32">
  <path d="m27.793 63.68c-0.02568-0.264-0.07962-1.632-0.11985-3.04l-0.07316-2.56 24.88-24.971v-8.1328l1.004-0.51917c2.4038-1.2431 3.6131-3.5091 3.3723-6.3191-0.27071-3.1591-2.3316-5.3236-5.5604-5.8399-3.8114-0.60946-7.47 2.6526-7.4484 6.6411 0.01085 2.0046 1.3975 4.3744 3.1125 5.3193l1.36 0.74933v6.5151l-24.96 24.954v7.5231h-9.28v-7.2992l1.4405-0.84421c1.9401-1.137 2.857-2.8984 2.8403-5.4566-0.01458-2.2337-0.57256-3.4875-2.1803-4.899-3.1121-2.7325-7.9326-1.8429-9.8444 1.8167-1.7998 3.4453-0.80186 7.097 2.3839 8.7229l1.2 0.61245v7.3641l-9.44-0.17711v-38.4l6.0356-0.18554 3.7464 3.7055-0.21282 2.1644c-0.27292 2.7756 0.36986 4.5912 2.1714 6.1333 3.4367 2.9417 8.7725 1.6094 10.377-2.5909 1.8436-4.8275-2.673-10.03-7.6097-8.7643l-1.617 0.41441-5.2107-5.178-7.68-0.17889v-8.96l19.913-0.169 3.545 3.8629-0.17059 1.8813c-0.23721 2.616 0.09642 4.0075 1.2856 5.3618 4.0475 4.6099 11.545 1.8712 11.545-4.2171 0-4.3634-4.6734-7.7323-8.6363-6.2256-0.83067 0.31582-1.0237 0.19111-3.4675-2.24l-2.5879-2.5744h-10.599c-9.3698 0-10.622-0.058707-10.793-0.50617-0.10683-0.27839-0.19424-1.847-0.19424-3.4858 0-2.4421 0.092805-3.0152 0.51451-3.177 0.28298-0.10859 12.049-0.19282 26.147-0.18718l25.633 0.010251 11.71 11.648-0.16494 38.418-7.4932 0.18008-0.53308-1.0309c-0.6601-1.2765-1.5189-2.045-3.1737-2.8401-5.2514-2.5232-11.103 3.5085-8.4501 8.7095 2.1372 4.1893 7.4863 5.0987 10.562 1.7957 0.53988-0.57982 1.1118-1.3828 1.2709-1.7844 0.28134-0.71009 0.39294-0.72771 4.0533-0.64l3.764 0.09019 0.08907 4.4066c0.06775 3.3515-0.0089 4.4421-0.32 4.5552-0.22499 0.08173-8.4371 0.18678-18.249 0.23344-15.665 0.07449-17.846 0.02632-17.887-0.39516z" fill="#d7f3d0"/>
  <path d="m0.64 44.8v-19.2h5.9419l3.4871 3.531 0.0055 2.8164c0.0049 2.5184 0.0969 2.9546 0.8692 4.123 1.264 1.9122 3.8506 3.1176 6.1752 2.8776 4.6624-0.4812 7.3321-5.4312 5.2494-9.7334-1.2821-2.6486-5.0089-4.2627-7.6866-3.3292-1.0475 0.36516-1.0736 0.34937-3.6284-2.1893l-2.5733-2.5572-7.68-0.17889v-8.96l19.209-0.16916 2.0092 2.0272c1.8747 1.8915 1.9868 2.086 1.6753 2.9054-1.0591 2.7857 0.4751 6.4898 3.2846 7.9302 3.3108 1.6973 7.1875 0.42528 8.9558-2.9386 0.76235-1.4502 0.89939-2.0444 0.789-3.4208-0.33826-4.2177-4.5836-7.2629-8.4646-6.0718-1.0437 0.32031-1.1135 0.27763-3.742-2.288l-2.6785-2.6144h-21.198v-6.72h52.007l11.358 11.372-0.1651 38.388-6.8513 0.18136-0.55345-0.89068c-1.538-2.4751-3.385-3.6107-5.8728-3.6107-3.9904 0-6.7225 2.6661-6.7225 6.56 0 2.1725 0.79479 3.8735 2.4458 5.2343 1.1791 0.97193 3.6056 1.7283 4.7784 1.4896 0.33872-0.06895 1.0092-0.20812 1.49-0.30927 1.0703-0.22517 2.9917-1.867 3.6304-3.1022l0.47187-0.9125h7.3436v8.96h-36.16v-5.9231l24.64-24.634v-3.9216c0-3.5841 0.05748-3.9697 0.66796-4.4816 2.3837-1.9984 3.4146-3.2743 3.7627-4.6567 0.75433-2.9957-0.73706-6.1887-3.5644-7.6311-1.8719-0.95497-5.1815-0.71798-6.7571 0.48384-2.1139 1.6123-2.5892 2.6236-2.5892 5.5089 0 2.3445 0.08421 2.6953 0.9055 3.7721 0.49803 0.65295 1.47 1.5435 2.16 1.9791l1.2545 0.79193v5.915l-24.96 24.954v7.8431h-9.28v-3.5126c0-3.4861 0.0066-3.5167 0.88-4.0591 2.3987-1.4895 3.5922-3.3845 3.6447-5.7868 0.0856-3.9194-2.7211-6.8015-6.6236-6.8015-3.055 0-5.2218 1.5598-6.3801 4.5929-1.0621 2.781-0.081463 5.4214 2.8101 7.5665l1.509 1.1194v2.9344c0 1.6139-0.087406 3.1622-0.19424 3.4406-0.16422 0.42796-0.88124 0.50617-4.64 0.50617h-4.4458z" fill="#c2e4b9"/>
  <path d="m0.85333 63.787c-0.11733-0.11733-0.21333-8.7573-0.21333-19.2v-18.987h5.94l3.7122 3.7514-0.39693 1.3248c-0.84806 2.8306 0.88836 6.4892 3.682 7.7581 6.6249 3.009 12.717-5.0236 7.9941-10.541-1.5255-1.7822-3.3734-2.4418-6.1217-2.1852l-2.1384 0.19969-5.2331-5.1079h-7.4568l0.089288-4.24 0.089288-4.24 19.533-0.16904 3.4153 3.4582-0.33595 1.5665c-1.373 6.402 5.9256 10.917 10.949 6.7735 2.9065-2.3975 3.2637-7.1141 0.7434-9.816-1.6259-1.7431-4.7405-2.6479-6.7882-1.9721l-1.1891 0.39246-5.2117-5.1847-21.116-0.16894v-6.4l51.86-0.16373 11.34 11.404v38.2h-7.2145l-0.63277-1.1771c-0.77683-1.4451-2.9697-2.8862-4.8123-3.1625-2.6585-0.39867-5.824 1.3686-7.2 4.0197-1.0309 1.9861-0.21136 6.1846 1.5113 7.7424 1.0106 0.91391 3.3994 1.8433 4.7483 1.8474 2.4099 0.0074 5.4791-1.9366 6.0884-3.8562 0.17704-0.5578 0.52837-0.61361 3.8622-0.61361h3.6675l-0.17806 8.8-36 0.16533v-5.9284l24.96-24.954v-4.06c0-3.7207 0.05127-4.0762 0.61361-4.2547 1.9216-0.6099 3.8574-3.6692 3.8633-6.1055 0.0048-1.9912-1.4008-4.5126-3.1254-5.6063-2.7412-1.7384-5.7876-1.5218-8.1103 0.57664-1.502 1.357-2.0431 2.3111-2.3465 4.1374-0.41227 2.4822 1.0484 5.541 3.199 6.6992l1.1063 0.59577v6.4175l-24.96 24.954v7.5231h-8.64l0.0172-7.2 1.3024-0.8c3.6744-2.257 4.0689-7.4761 0.79336-10.495-2.4432-2.2521-5.4444-2.5164-8.2644-0.72803-1.7312 1.0979-3.1285 3.612-3.1285 5.6289 0 1.942 1.4501 4.5892 3.12 5.6957l1.36 0.90115v6.9977h-4.2667c-2.3467 0-4.3627-0.096-4.48-0.21333z" fill="#9cca90"/>
  <path d="m0.80278 63.414c-0.23268-0.60918-0.20225-36.699 0.031456-37.308 0.15521-0.40446 0.72004-0.50617 2.8109-0.50617h2.6167l3.4871 3.531 0.00552 2.7945c0.00505 2.5557 0.085406 2.9123 0.9404 4.1732 2.1299 3.141 6.1721 4.068 9.3302 2.1398 1.1828-0.72215 1.794-1.3937 2.4549-2.6974 1.8507-3.6505 0.57713-7.6267-3.0451-9.5071-1.0509-0.54555-3.9649-0.72476-5.2175-0.32088-0.53336 0.17197-1.1544-0.28439-3.1848-2.3404l-2.5223-2.554-7.7104-0.17866-0.09651-3.2c-0.05308-1.76-0.010555-3.668 0.0945-4.24l0.19101-1.04h19.031l1.8166 1.84c1.799 1.8222 1.8137 1.8524 1.5138 3.12-1.0119 4.2787 2.2741 8.48 6.6326 8.48 6.2393 0 9.3064-7.5518 4.8189-11.865-1.4486-1.3925-3.3634-1.9939-5.6666-1.7798l-2.1089 0.196-4.9972-4.7908h-10.311c-7.5928 0-10.412-0.10122-10.695-0.384-0.23672-0.23672-0.384-1.3984-0.384-3.0287 0-2.2873 0.08366-2.6895 0.61896-2.976 0.41159-0.22028 9.0381-0.33126 25.749-0.33126h25.13l1.1879 1.04c0.65334 0.572 3.3171 3.1733 5.9194 5.7806l4.7315 4.7406-0.06825 18.939-0.06825 18.939-6.72 0.17522-1.12-1.5074c-2.8053-3.7758-7.5988-4.0148-10.792-0.53817-3.3788 3.6784-1.4771 9.6904 3.5252 11.145 1.7181 0.49946 1.9418 0.4991 3.4612-0.0056 1.8106-0.60139 3.5927-2.0081 4.3161-3.4069l0.4774-0.92318 6.8525 0.18138 0.09308 3.52c0.05119 1.936 0.01245 3.844-0.0861 4.24l-0.17917 0.72001h-35.828v-5.2487l3.8657-3.9102c2.1262-2.1506 3.9505-3.9577 4.0542-4.0157 0.10364-0.05799 1.3161-1.2829 2.6943-2.722 1.3782-1.4391 2.5058-2.5657 2.5058-2.5034 0 0.06222 1.152-1.0898 2.56-2.56 1.408-1.4702 2.56-2.6222 2.56-2.56 0 0.06222 1.152-1.0898 2.56-2.56 1.408-1.4702 2.56-2.6006 2.56-2.512 0 0.08861 0.36-0.26673 0.8-0.78964 0.76074-0.90409 0.8-1.1487 0.8-4.9846 0-2.2186 0.11808-4.0338 0.2624-4.0338 0.6304 0 3.0765-2.4786 3.614-3.6621 1.2561-2.7654 0.47584-6.2208-1.8351-8.1271-4.542-3.7466-11.318-0.61593-11.318 5.2292 0 2.4505 1.5146 5.0448 3.5639 6.1046 0.90676 0.4689 0.9125 0.4911 0.9125 3.5301v3.0583l-24.96 25.017v7.2497h-8.64v-6.6568l1.0816-0.63817c2.4846-1.466 3.895-5.0398 3.1211-7.9088-0.43101-1.5977-2.3908-3.8066-3.9584-4.4617-2.5871-1.081-5.8403-0.33606-7.8014 1.7863-2.7363 2.9614-2.1301 8.2039 1.1829 10.23 1.516 0.92712 1.6295 1.2859 1.5086 4.7691l-0.094417 2.72-4.2372 0.16c-3.347 0.12639-4.2714 0.07047-4.4-0.26617z" fill="#90bc84"/>
  <path d="m0.90667 63.361c-0.058667-0.17568-0.068385-8.6579-0.021597-18.849l0.08507-18.53 1.6652-0.1123c2.8883-0.19479 3.9695 0.02373 4.3602 0.88124 0.19296 0.42349 0.54481 0.76998 0.78191 0.76998 0.23709 0 0.76272 0.35302 1.1681 0.78449 0.66248 0.70518 0.7315 1.0632 0.68268 3.541-0.044505 2.2591 0.060914 2.943 0.58412 3.7895 1.8022 2.916 4.6988 4.1292 8.1488 3.413 1.7087-0.35471 2.5436-1.0237 4.7377-3.796 0.20441-0.25828 0.2832-1.4842 0.19878-3.0927-0.12058-2.2973-0.26187-2.8248-1.0246-3.8247-0.48658-0.63794-1.4746-1.5502-2.1955-2.0273-1.1743-0.77709-1.6021-0.86741-4.1081-0.86741h-2.7973l-4.372-4.5958-7.68-0.20423v-8.32h18.934l1.7607 1.76c1.6959 1.6953 1.7496 1.8012 1.4598 2.88-0.50032 1.8623-0.08274 4.2799 1.0148 5.8751 1.2934 1.8799 3.1246 2.7649 5.7211 2.7649 3.2044 0 4.989-1.1323 6.4895-4.1173 1.3392-2.6639 0.2906-6.5467-2.258-8.3615-1.4842-1.0568-3.9621-1.6192-5.7024-1.294l-1.4551 0.27184-5.0629-5.0561-9.9706 0.013413c-5.4838 0.0073767-10.223 0.0067214-10.531-0.0014569-0.49299-0.01309-0.56-0.37863-0.56-3.0549v-3.04l51.68 0.016564 11.089 11.343-0.02944 18.704c-0.02275 14.457-0.11914 18.763-0.42447 18.963-0.21726 0.14261-1.7231 0.23948-3.3463 0.21526-2.7021-0.04032-2.9709-0.10141-3.1834-0.72349-0.12765-0.3737-0.2203-0.75145-0.20588-0.83945 0.01443-0.088-0.26718-0.448-0.62576-0.8-0.35859-0.352-0.53573-0.424-0.39365-0.16 0.17724 0.32934 0.06713 0.30118-0.35084-0.08973-1.5303-1.4312-2.0855-1.7126-3.5273-1.7872-0.83635-0.0433-1.6397-0.1523-1.7852-0.24225-0.14553-0.08994-1.0356 0.20122-1.978 0.64703-1.7922 0.84784-3.5364 2.5514-4.0828 3.9877-0.48385 1.2718-0.38655 3.9601 0.19359 5.3486 1.0962 2.6235 4.5637 4.5929 7.3214 4.1583 2.5166-0.39662 5.3253-2.5472 5.4623-4.1825 0.01603-0.19131 1.378-0.32 3.3868-0.32h3.36l0.16 3.04c0.088 1.672 0.10866 3.5822 0.04591 4.245l-0.11408 1.205-35.485-0.03066 0.06161-2.3096c0.03388-1.2703 0.18551-2.6434 0.33695-3.0514 0.32468-0.87467 23.156-23.79 23.43-23.516 0.46598 0.46598 0.84477-1.8515 0.84477-5.1685 0-2.927 0.09242-3.6604 0.48-3.8091 0.264-0.10131 0.48-0.3816 0.48-0.62287 0-0.24127 0.35473-0.6003 0.78828-0.79785 0.94538-0.43074 2.2202-2.3616 2.7002-4.0899 0.37163-1.3379-0.10221-4.9337-0.65014-4.9337-0.1531 0-0.27836-0.20108-0.27836-0.44685 0-0.88062-2.1326-2.333-4.2786-2.9139l-2.1234-0.57478-1.9561 0.76776c-1.0759 0.42227-2.0268 0.94776-2.1132 1.1678-0.08641 0.22-0.35771 0.4-0.60288 0.4-0.24517 0-0.44576 0.20571-0.44576 0.45714 0 0.25143-0.23828 0.69542-0.52951 0.98665-0.33772 0.33772-0.6033 1.3346-0.73324 2.7522-0.29096 3.1743 0.77314 5.3589 3.4299 7.0418l1.0472 0.6633-0.09972 2.8452-0.09972 2.8452-12.307 12.342c-6.7691 6.788-12.361 12.4-12.427 12.471-0.06596 0.07095-0.0964 1.4198-0.06764 2.9975 0.02875 1.5777-0.04089 3.2397-0.15477 3.6934l-0.20705 0.82494h-8.2506v-3.3789c0-2.1711 0.11438-3.3082 0.32-3.1811 0.176 0.10878 0.32 0.04527 0.32-0.14111 0-0.18639 0.18906-0.33889 0.42013-0.33889 1.2846 0 3.4875-3.9358 3.4661-6.1926-0.022-2.3155-0.60191-3.5573-2.5351-5.4287-1.1751-1.1375-1.4246-1.2336-3.6363-1.4009-2.1209-0.16041-2.5488-0.09135-4.0047 0.64641-1.7747 0.89929-3.4734 3.0524-3.8041 4.8218-0.43902 2.3484 1.608 7.0195 3.2576 7.4335 0.42534 0.10675 0.91354 0.45606 1.0849 0.77625 0.45087 0.84246 0.39424 5.5336-0.072441 6.0002-0.48162 0.48162-8.1502 0.54122-8.3093 0.06458z" fill="#89bd7a"/>
  <path d="m1.3574 63.415c-0.3175-0.20156-0.38516-4.1755-0.32-18.795l0.082625-18.539 4.9974-0.1876 1.3732 1.4538c0.75528 0.79959 1.5503 1.4538 1.7668 1.4538 0.29323 0 0.33768 0.52176 0.17435 2.0468-0.35299 3.2962-0.015664 4.4424 1.8779 6.3808 1.3802 1.4129 1.9424 1.7536 3.4345 2.0813 1.4795 0.325 2.0955 0.31084 3.6072-0.08292 1.0027-0.26116 2.046-0.69787 2.3186-0.97046s0.61021-0.49563 0.75025-0.49563 0.6509-0.59882 1.1352-1.3307c0.79178-1.1965 0.88062-1.6122 0.88062-4.1214 0-2.4219-0.10019-2.9318-0.7581-3.8582-1.7838-2.5116-3.171-3.1697-6.682-3.1697h-2.5845l-4.8469-4.8-2.9223-0.05473c-1.6073-0.030108-3.2823-0.066108-3.7223-0.080004l-0.8-0.025266v-7.68l9.2486-0.08499c7.8844-0.07245 9.3594-0.01237 10 0.40738 0.41329 0.2708 0.75144 0.70504 0.75144 0.96499 0 0.25994 0.216 0.47262 0.48 0.47262s0.48 0.15692 0.48 0.34871 0.31882 0.60687 0.70849 0.92241c0.62548 0.50648 0.66297 0.67361 0.32 1.4264-0.83785 1.8389-0.13777 4.8452 1.5333 6.5844 0.67539 0.70295 1.3713 1.2781 1.5464 1.2781s0.37454 0.16835 0.44312 0.37411c0.07702 0.23107 1.1807 0.42954 2.8865 0.51907 2.4575 0.12899 2.8569 0.07014 3.6251-0.53411 0.47481-0.37349 1.0522-0.67907 1.283-0.67907 0.23086 0 0.95991-0.81381 1.6201-1.8085 1.0999-1.657 1.1973-1.9853 1.164-3.92-0.04432-2.572-0.44848-3.6981-1.7864-4.9771-2.0952-2.0031-2.718-2.2474-5.7533-2.257l-2.8095-0.008894-4.449-4.6937-10.223 0.032581c-11.873 0.037839-11.229 0.21014-11.229-3.0041 0-1.117 0.087406-2.2587 0.19424-2.5371 0.17486-0.45569 2.7304-0.50617 25.622-0.50617h25.428l3.4787 3.4212c1.9133 1.8816 3.3929 3.5599 3.2881 3.7294-0.10479 0.16956-0.03557 0.21251 0.15383 0.095457 0.32103-0.1984 2.362 1.7355 3.8884 3.6844 0.65723 0.83914 0.6661 1.0957 0.6661 19.261 0 10.126-0.11653 18.483-0.25896 18.571-0.48396 0.29911-3.7358 0.49236-4.9871 0.29638-0.95461-0.14952-1.3203-0.38968-1.5637-1.0269-0.17473-0.45746-0.87794-1.2637-1.5627-1.7917-0.68475-0.528-1.4468-1.14-1.6934-1.36-0.26428-0.23573-1.3305-0.4-2.5962-0.4-2.6251 0-4.3109 0.75549-6.2679 2.8089l-1.3663 1.4336-0.01184 3.1525-0.01184 3.1525 1.5546 1.4906c1.9687 1.8876 4.5279 2.7931 6.5869 2.3304 2.7214-0.61146 5.4585-2.5285 5.4585-3.8231 0-0.5809 0.23938-0.62546 3.36-0.62546h3.36v3.8479c0 3.836-0.0026 3.8489-0.82083 4.16-0.93901 0.35701-32.47 0.37959-33.739 0.02416-0.7732-0.21661-0.79689-0.30398-0.70713-2.6081 0.0912-2.341 0.11838-2.41 1.5065-3.824 0.77749-0.792 2.0132-2.123 2.7459-2.9579 0.73277-0.83484 1.8189-1.8186 2.4135-2.1861 0.59466-0.36752 1.0831-0.83647 1.0853-1.0421 0.0034-0.30358 1.8884-2.2139 4.7324-4.7957 0.22911-0.20799 1.0634-1.1263 1.8539-2.0407 0.79056-0.91438 1.9351-1.9701 2.5434-2.3461 0.60834-0.37597 1.1056-0.85185 1.1051-1.0575-6.4e-4 -0.20564 1.347-1.6699 2.9945-3.2539 3.8515-3.703 4.0249-4.0531 3.7249-7.52-0.2601-3.0054 0.03323-3.8074 1.969-5.3833 4.3617-3.5509 2.8197-11.008-2.5744-12.45-2.9048-0.77666-4.5096-0.44843-6.9769 1.427-1.959 1.489-2.781 4.5023-2.1242 7.7865 0.21326 1.0663 3.4306 4.7089 4.0076 4.5372 0.15372-0.04574 0.2522 1.1783 0.21884 2.72l-0.060656 2.8032-2.9088 2.9951c-1.5999 1.6473-3.1773 3.2313-3.5054 3.52-0.32811 0.28871-1.1921 1.1573-1.92 1.9301-0.7279 0.77286-1.8727 1.9249-2.5441 2.56-0.67137 0.63513-2.1114 2.0745-3.2 3.1986-1.0886 1.1241-2.253 2.2761-2.5874 2.56-0.8273 0.70224-1.4281 1.3016-2.7867 2.7797-0.63514 0.69105-1.9561 2.0014-2.9356 2.9118-0.97941 0.91044-1.9404 1.9537-2.1356 2.3183-0.19514 0.36462-0.35853 2.0298-0.3631 3.7004-6e-3 2.1912-0.13516 3.1644-0.46362 3.4928-0.3343 0.3343-1.3968 0.46425-3.9973 0.48893l-3.542 0.03361 0.15133-1.7647c0.08933-1.0417 0.02289-1.7647-0.16216-1.7647-0.17242 0-0.08932-0.32004 0.18465-0.7112 0.6248-0.89203 0.62956-1.2088 0.01815-1.2088-0.79404 0-0.54909-0.46526 0.76557-1.4542 2.4774-1.8635 3.7244-4.7341 3.3302-7.6658-0.11832-0.88-0.18471-1.7187-0.14753-1.8638 0.03718-0.14508-0.0696-0.17899-0.23729-0.07535-0.16769 0.10364-0.38808-0.06566-0.48977-0.37621-0.10168-0.31056-0.78815-1.2126-1.5255-2.0046l-1.3406-1.44-3.1916 0.0019c-2.343 0.0016-3.2287 0.11336-3.3311 0.42068-0.076746 0.23024-0.47963 0.54791-0.89529 0.70595-0.92026 0.34988-2.5876 2.5834-2.9745 3.9847-0.36364 1.317 0.046561 3.8998 0.87828 5.5301 0.61005 1.1958 1.7432 2.3442 3.0986 3.1403 0.50431 0.29622 0.57425 0.71503 0.50566 3.0279-0.043776 1.4763-0.23348 2.8696-0.42157 3.0962-0.38574 0.46478-6.8473 0.59036-7.5462 0.14665zm19.123-1.6546c0-0.176-0.144-0.32-0.32-0.32s-0.32 0.144-0.32 0.32 0.144 0.32 0.32 0.32 0.32-0.144 0.32-0.32zm-17.44-0.64c0.10877-0.176 0.045272-0.32-0.14111-0.32-0.18639 0-0.33889 0.144-0.33889 0.32s0.063502 0.32 0.14111 0.32c0.077613 0 0.23011-0.144 0.33889-0.32zm14.56-1.28c0-0.176-0.0635-0.32-0.14112-0.32-0.07761 0-0.23011 0.144-0.33888 0.32s-0.04527 0.32 0.14111 0.32c0.18639 0 0.33889-0.144 0.33889-0.32zm13.44-13.76c0-0.176-0.0635-0.32-0.14112-0.32-0.07761 0-0.23011 0.144-0.33888 0.32-0.10878 0.176-0.04527 0.32 0.14111 0.32 0.18639 0 0.33889-0.144 0.33889-0.32zm15.84-0.96c0.10878-0.176 0.04527-0.32-0.14111-0.32-0.18639 0-0.33889 0.144-0.33889 0.32s0.0635 0.32 0.14111 0.32c0.07761 0 0.23011-0.144 0.33889-0.32zm-35.04-3.2c0-0.176-0.144-0.32-0.32-0.32s-0.32 0.144-0.32 0.32 0.144 0.32 0.32 0.32 0.32-0.144 0.32-0.32zm24.32-0.96c0-0.176-0.0635-0.32-0.14111-0.32-0.07761 0-0.23011 0.144-0.33889 0.32-0.10877 0.176-0.04527 0.32 0.14111 0.32 0.18639 0 0.33889-0.144 0.33889-0.32zm5.12-5.12c0-0.176-0.144-0.32-0.32-0.32s-0.32 0.144-0.32 0.32 0.144 0.32 0.32 0.32 0.32-0.144 0.32-0.32zm4.8-4.9789c0-0.27439-0.144-0.40989-0.32-0.30111-0.176 0.10877-0.32 0.33327-0.32 0.49888s0.144 0.30112 0.32 0.30112 0.32-0.2245 0.32-0.49889zm1.28-3.0211c0-0.176-0.1525-0.32-0.33889-0.32s-0.24989 0.144-0.14111 0.32c0.10878 0.176 0.26127 0.32 0.33889 0.32 0.07761 0 0.14111-0.144 0.14111-0.32zm-23.04-1.92c0-0.176-0.144-0.32-0.32-0.32s-0.32 0.144-0.32 0.32 0.144 0.32 0.32 0.32 0.32-0.144 0.32-0.32zm-1.28-1.28c0-0.176-0.2245-0.32-0.49889-0.32s-0.40989 0.144-0.30111 0.32 0.33327 0.32 0.49888 0.32 0.30112-0.144 0.30112-0.32zm36.16-8c0-0.352-0.144-0.64-0.32-0.64s-0.32 0.288-0.32 0.64 0.144 0.64 0.32 0.64 0.32-0.288 0.32-0.64zm-56-2.88c0-0.176-0.216-0.32-0.48-0.32s-0.48 0.144-0.48 0.32 0.216 0.32 0.48 0.32 0.48-0.144 0.48-0.32zm25.28-3.52c0.38815-0.25084 0.34222-0.31114-0.24-0.3151-0.396-0.00269-0.72 0.1391-0.72 0.3151 0 0.40094 0.3396 0.40094 0.96 0zm4 0c-0.10877-0.176-0.44127-0.30988-0.73888-0.29751-0.44112 0.018335-0.42284 0.073314 0.098886 0.29751 0.85629 0.36796 0.86741 0.36796 0.64 0zm-29.28-4.48c0-0.176-0.144-0.32-0.32-0.32s-0.32 0.144-0.32 0.32 0.144 0.32 0.32 0.32 0.32-0.144 0.32-0.32zm0-1.6c0-0.176-0.144-0.32-0.32-0.32s-0.32 0.144-0.32 0.32 0.144 0.32 0.32 0.32 0.32-0.144 0.32-0.32zm0-1.4667c0-0.5651-0.68888-0.46668-0.88667 0.12667-0.069667 0.209 0.10133 0.38 0.38 0.38s0.50667-0.228 0.50667-0.50667zm48.233-0.00667c-0.10634-0.10633-0.38234-0.1177-0.61334-0.02526-0.25527 0.10215-0.17945 0.17798 0.19334 0.19333 0.33733 0.013895 0.52633-0.061737 0.42-0.16807z" fill="#83c672"/>
  <path d="m1.92 63.04c0-0.176 0.144-0.32 0.32-0.32s0.32 0.144 0.32 0.32-0.144 0.32-0.32 0.32-0.32-0.144-0.32-0.32zm13.947-0.27705c-0.13785-0.22304-0.16421-0.49194-0.05859-0.59757 0.28639-0.28639 0.59865 0.13482 0.44396 0.59886-0.10839 0.32517-0.18376 0.32492-0.38538-0.0013zm4.8027-0.24212c-0.10955-0.28548 0.06043-0.44083 0.48236-0.44083 0.49223 0 0.6048-0.14721 0.46042-0.60211-0.12061-0.37999-0.01052-0.6714 0.29844-0.78996 0.3657-0.14033 0.4889 0.03222 0.48704 0.6821-0.0029 1.0141-1.4189 1.9569-1.7283 1.1508zm7.9708-0.12083c0.10877-0.176 0.26127-0.32 0.33888-0.32 0.07761 0 0.14112 0.144 0.14112 0.32s-0.1525 0.32-0.33889 0.32-0.24989-0.144-0.14111-0.32zm-27.04-0.64c-0.38815-0.25084-0.34222-0.31114 0.24-0.3151 0.396-0.0027 0.72 0.1391 0.72 0.3151 0 0.40093-0.3396 0.40093-0.96 0zm61.12-0.32c0-0.352 0.1286-0.64 0.28576-0.64 0.35969 0 0.69521 0.83236 0.43886 1.0887-0.3852 0.38521-0.72462 0.17503-0.72462-0.44871zm-47.04-0.67834c0-1.0006 0.01271-1.0094 0.64-0.44166 0.352 0.31856 0.64 0.62381 0.64 0.67834 0 0.05453-0.288 0.25328-0.64 0.44166-0.57783 0.30925-0.64 0.24336-0.64-0.67834zm3.52 0.24339c0-0.25999-0.0484-0.66449-0.10755-0.89888-0.05915-0.2344-0.04685-0.31728 0.02733-0.18418 0.07419 0.1331 0.26659 0.1606 0.42755 0.06111 0.16097-0.09948 0.29267 0.10712 0.29267 0.45912s-0.144 0.729-0.32 0.83777-0.32-0.01494-0.32-0.27494zm40.96-0.49082c0-0.15717 0.20867-0.36584 0.4637-0.4637 0.30993-0.11893 0.4047-0.02416 0.28576 0.28576-0.19423 0.50615-0.74947 0.63798-0.74947 0.17794zm-53.699-0.69824c0.063067-0.1892 0.21907-0.3332 0.34667-0.32 0.1276 0.01318 0.448 0.024 0.712 0.024s0.48 0.144 0.48 0.32-0.372 0.32-0.82667 0.32c-0.45467 0-0.77507-0.1548-0.712-0.344zm25.859 0.024c0-0.176 0.1525-0.32 0.33889-0.32s0.24989 0.144 0.14111 0.32c-0.10877 0.176-0.26127 0.32-0.33889 0.32-0.07761 0-0.14111-0.144-0.14111-0.32zm8.96-0.01005c0-0.17047 0.216-0.30995 0.48-0.30995s0.48 0.0566 0.48 0.12576c0 0.06917-0.216 0.20865-0.48 0.30996-0.264 0.1013-0.48 0.04471-0.48-0.12576zm-38.288-2.55c0-1.496 0.055122-2.108 0.12249-1.36s0.067371 1.972 0 2.72-0.12249 0.136-0.12249-1.36zm26.002 2.0525c-0.10711-0.27913-0.05978-0.74713 0.10517-1.04 0.23198-0.41187 0.29355-0.2969 0.27181 0.5075-0.03163 1.1703-0.09687 1.2625-0.37699 0.5325zm26.052 0.19122c-0.2505-0.15482-0.57033-0.21049-0.71073-0.12372-0.1404 0.08677-0.25528 0.02067-0.25528-0.14688 0-0.5405 0.90125-0.66949 1.3022-0.18637 0.47698 0.57473 0.28237 0.83926-0.33619 0.45696zm-38.279-0.77459c-0.28881-0.75263 0.14148-1.1993 0.81045-0.84125 0.31818 0.17028 0.69253 0.20668 0.83188 0.08087 0.13936-0.12581 0.15027-0.04952 0.02425 0.16954-0.12602 0.21905-0.51124 0.54926-0.85605 0.7338-0.48321 0.2586-0.66902 0.22583-0.81053-0.14296zm4.0292 0.29088c-0.18784-0.88829-0.29083-2.4-0.1635-2.4 0.38504 0 0.6804 1.2091 0.46903 1.92-0.13082 0.44-0.26831 0.656-0.30553 0.48zm23.223-0.65018c-0.59778-0.45214-0.59004-0.46982 0.20576-0.46982 0.45481 0 0.90981 0.216 1.0111 0.48 0.23358 0.60871-0.40571 0.60337-1.2169-0.01018zm-9.9252-0.12771c-0.10126-0.16384-0.03776-0.38834 0.14111-0.49889 0.17887-0.11055 0.32522 0.02349 0.32522 0.29789 0 0.56209-0.19202 0.64485-0.46633 0.201zm-27.094-0.18211c-0.022-0.088-0.058-0.30925-0.08-0.49167-0.022-0.18242-0.23537-0.45242-0.47416-0.6-0.30247-0.18694-0.32674-0.33472-0.08-0.48722 0.19479-0.12039 0.35416-0.05789 0.35416 0.13889 0 0.19678 0.144 0.26878 0.32 0.16 0.176-0.10877 0.32-0.03677 0.32 0.16 0 0.19678 0.13405 0.27492 0.29789 0.17367 0.16384-0.10126 0.40209-0.01552 0.52944 0.19056 0.14462 0.23399 0.092844 0.28894-0.13789 0.14633-0.21891-0.1353-0.36944-0.02506-0.36944 0.27056 0 0.4462-0.58081 0.73565-0.68 0.33889zm49.865-0.26666c-0.09005-0.23467 0.03854-0.42667 0.28576-0.42667 0.24722 0 0.44949 0.192 0.44949 0.42667 0 0.23466-0.1286 0.42666-0.28576 0.42666-0.15717 0-0.35944-0.192-0.44949-0.42666zm-27.019-0.6527c-0.10181-0.16474-0.02882-0.20292 0.16222-0.08486 0.19103 0.11806 0.4373 0.06909 0.54726-0.10884 0.10996-0.17792 0.47991-0.47334 0.82211-0.65648 0.54066-0.28936 0.62218-0.22602 0.62218 0.48336 0 0.71445-0.12286 0.80698-0.98433 0.74134-0.54138-0.04125-1.0676-0.20979-1.1694-0.37452zm12.614 0.0019c-0.12718-0.33141-0.08557-0.47684 0.10306-0.36026 0.50145 0.30991 0.36784-0.21496-0.2201-0.86463-0.40133-0.44346-0.44462-0.68458-0.17189-0.9573 0.51327-0.51327 1.1676 1.2468 0.78348 2.1076-0.25759 0.57727-0.29926 0.58356-0.49456 0.07462zm1.0847-0.06919c0.01536-0.37278 0.09118-0.44861 0.19333-0.19334 0.09244 0.231 0.08107 0.507-0.02525 0.61334-0.10634 0.10633-0.18196-0.08267-0.16807-0.42zm-26.585-0.45335c0-0.176 0.1525-0.32 0.33888-0.32s0.24989 0.144 0.14112 0.32-0.26127 0.32-0.33889 0.32c-0.07761 0-0.14111-0.144-0.14111-0.32zm0.98526-1.2134c-0.0139-0.40336 0.27936-1.0514 0.65168-1.44l0.67695-0.70662-0.47304 0.96c-0.26017 0.528-0.55343 1.176-0.65168 1.44-0.11644 0.31286-0.18744 0.22464-0.20391-0.25338zm4.2081 0.19338c0.06967-0.209 0.29776-0.43703 0.50688-0.50674 0.23384-0.07795 0.30536 0.06835 0.18576 0.38-0.22321 0.58167-0.88463 0.70269-0.69265 0.12674zm10.028-0.99002c0.51637-0.66551 1.2479-1.415 1.6256-1.6656 0.66894-0.44375 0.6775-0.43103 0.32985 0.49002-0.21722 0.57548-0.58736 0.9456-0.94566 0.9456-0.38042 0-0.50728 0.14153-0.35854 0.4 0.1266 0.22 0.11079 0.29169-0.03515 0.1593-0.14594-0.13238-0.55551 0.01162-0.91016 0.32-0.35466 0.30838-0.22234 0.01619 0.29403-0.64932zm-28.341 0.10891c0-0.16561 0.144-0.39011 0.32-0.49889 0.176-0.10877 0.32 0.02672 0.32 0.30111 0 0.27439-0.144 0.49889-0.32 0.49889s-0.32-0.1355-0.32-0.30111zm-0.84464-3.2189c0-1.672 0.053934-2.356 0.11985-1.52 0.06592 0.836 0.06592 2.204 0 3.04s-0.11985 0.152-0.11985-1.52zm37.508 1.5051c-0.14333-0.4922-0.1713-0.9842-0.06217-1.0933 0.35819-0.35819 0.56884 0.15294 0.44468 1.079l-0.12191 0.90925zm-15.384-0.5451c0.10877-0.176 0.26127-0.32 0.33888-0.32 0.07761 0 0.14112 0.144 0.14112 0.32s-0.1525 0.32-0.33889 0.32-0.24989-0.144-0.14111-0.32zm10.824-0.7558c0.66216-0.99726 1.1762-1.0111 1.1762-0.03168 0 0.77302-0.05805 0.81876-0.54143 0.42667-0.29778-0.24155-0.44812-0.28318-0.33408-0.09252 0.11404 0.19067-0.0039 0.34667-0.26219 0.34667-0.40006 0-0.40576-0.09606-0.03854-0.64913zm-32.104-1.1642c0-0.352 0.11336-0.64 0.2519-0.64 0.13855 0 0.2736 0.288 0.30011 0.64 0.026515 0.352-0.086841 0.64-0.2519 0.64-0.16506 0-0.30011-0.288-0.30011-0.64zm23.04 0.16c0.2191-0.264 0.52021-0.48 0.66914-0.48s0.18789 0.216 0.08658 0.48c-0.10131 0.264-0.40242 0.48-0.66914 0.48-0.39478 0-0.41088-0.08924-0.08658-0.48zm10.559-1.36c0.41874-0.572 0.84374-1.04 0.94444-1.04 0.1007 0 0.57935-0.36743 1.0637-0.81651 0.48431-0.44908 1.0071-0.73832 1.1617-0.64274 0.15464 0.09557 0.51623-0.185 0.80354-0.62349 0.28731-0.43849 0.66306-0.79725 0.835-0.79725 0.17194 0 0.01936 0.29325-0.33905 0.65167-0.35842 0.35842-0.57058 0.78289-0.47145 0.94327 0.09912 0.16038-0.10496 0.23668-0.4535 0.16956-0.42449-0.08175-0.70299 0.09621-0.84353 0.53901-0.16563 0.52185-0.2688 0.56792-0.48993 0.21877-0.27307-0.43116-0.31136-0.39167-0.42446 0.43772-0.02998 0.22-0.2387 0.36043-0.46378 0.31207-0.22508-0.04836-0.32812 0.04332-0.22898 0.20374 0.09915 0.16042-0.03415 0.46962-0.29622 0.68711-0.26206 0.21749-0.47648 0.28818-0.47648 0.15708s-0.24353-0.04073-0.54117 0.20082c-0.30665 0.24886-0.21123-0.01152 0.22018-0.60082zm4.3653 0.4c0.10131-0.264 0.22538-0.48 0.27572-0.48 0.05034 0 0.17441 0.216 0.27572 0.48 0.11107 0.28946 0.0016 0.48-0.27572 0.48-0.27734 0-0.38679-0.19054-0.27572-0.48zm-37.94-1.1811c-0.013389-0.64961 0.1097-1.264 0.27354-1.3652 0.52213-0.3227 0.59062 0.27176 0.16433 1.4263l-0.41353 1.12zm38.794 0.59494c0.12215-0.32239 0.2221-0.74719 0.2221-0.944 0-0.26048 0.09887-0.25896 0.36343 0.0056 0.27124 0.27124 0.2149 0.5107-0.22209 0.944-0.56558 0.56079-0.57796 0.5606-0.36343-0.0056zm14.391-0.93383c-0.67906-0.87761-0.71035-1.4788-0.07447-1.4309 0.40118 0.03021 0.5086 0.15595 0.30617 0.35837-0.20243 0.20243-0.12756 0.51543 0.2134 0.89219 0.28887 0.3192 0.37654 0.58037 0.19481 0.58037s-0.46969-0.18-0.63992-0.4zm-13.209-0.20223c0-0.176 0.144-0.409 0.32-0.51777 0.176-0.10877 0.32-0.05377 0.32 0.12223 0 0.176-0.144 0.409-0.32 0.51777-0.176 0.10878-0.32 0.05377-0.32-0.12223zm-13.76-0.32c0-0.176 0.144-0.409 0.32-0.51777 0.176-0.10877 0.32-0.05377 0.32 0.12223 0 0.176-0.144 0.409-0.32 0.51777-0.176 0.10878-0.32 0.05377-0.32-0.12223zm14.72-0.33888c0-0.16561 0.14235-0.3891 0.31634-0.49662 0.1814-0.11211 0.23504 0.01635 0.12576 0.30111-0.21273 0.55438-0.4421 0.6558-0.4421 0.19551zm-41.999-7.7786c0.044579-4.2682 0.12662-8.4083 0.18232-9.2003 0.055698-0.792 0.12722 2.7 0.15895 7.76 0.031724 5.06-0.05032 9.2001-0.18232 9.2003-0.132 1.6e-4 -0.20353-3.4918-0.15895-7.76zm29.129 6.7512c-0.07806-0.23418 0.0565-0.62421 0.29902-0.86674 0.60087-0.60087 0.70404-0.36007 0.23301 0.54388-0.25891 0.49687-0.43783 0.60545-0.53203 0.32286zm14.176-0.04205c0.07333-0.0498 0.42133-0.3018 0.77333-0.56 0.592-0.43424 0.60706-0.42745 0.20082 0.09055-0.24155 0.308-0.58955 0.56-0.77333 0.56s-0.27415-0.04075-0.20082-0.09055zm-27.945-0.76939c0.2211-0.08509 0.3206-0.28642 0.22111-0.44739-0.09948-0.16097 0.01962-0.29267 0.26467-0.29267 0.72146 0 0.50917 0.82884-0.22112 0.86331-0.36667 0.01731-0.48577-0.03816-0.26467-0.12325zm36.253-0.08384c-0.2556-0.16169-0.6156-0.2084-0.8-0.1038-0.1844 0.1046-0.22434 0.06817-0.08876-0.08097 0.39992-0.43988 1.4068-0.39268 1.4068 0.06596 0 0.23243-0.012 0.42039-0.02666 0.41769-0.01466-0.0026-0.23579-0.13719-0.49139-0.29889zm-48.655-0.29844c0-0.176 0.144-0.409 0.32-0.51777 0.176-0.10877 0.32-0.05377 0.32 0.12223 0 0.176-0.144 0.409-0.32 0.51777-0.176 0.10878-0.32 0.05377-0.32-0.12223zm39.101-0.33707c0.41821-0.66967 0.89866-0.5851 0.89866 0.15819 0 0.25361-0.28922 0.46111-0.64271 0.46111-0.55545 0-0.5902-0.08409-0.25595-0.6193zm2.8187-0.01384c0-0.56111 0.09204-0.5912 0.80908-0.2645 0.58692 0.26742 0.69676 0.43992 0.4 0.62824-0.70383 0.44664-1.2091 0.29464-1.2091-0.36374zm-30.583-0.2905c0-0.36039 0.1658-0.54002 0.41143-0.44576 0.22629 0.08684 0.41143 0.35847 0.41143 0.60364 0 0.24517-0.18514 0.44576-0.41143 0.44576s-0.41143-0.27164-0.41143-0.60364zm25.236 0.20364c0.08066-0.22 0.32633-0.35811 0.54592-0.30692 0.239 0.05573 0.32508-0.10021 0.21445-0.3885-0.11457-0.29856 0.1485-0.71892 0.69217-1.106 0.83984-0.59802 0.87697-0.59947 0.87697-0.03435 0 0.32456-0.09874 0.56439-0.21943 0.53296-0.12068-0.03142-0.23383 0.05086-0.25143 0.18286-0.05222 0.39168-1.2835 1.52-1.6587 1.52-0.19067 0-0.28067-0.18-0.2-0.4zm-33.156-2.1972c-0.18456-0.70577 0.044637-0.74773 0.8299-0.15192 0.53901 0.40897 0.53638 0.43868-0.0524 0.59265-0.42295 0.1106-0.66993-0.02941-0.7775-0.44073zm4.9024 0.35717c-0.50412-0.32578-0.40314-0.369 1.0667-0.4565 0.8174-0.04866 0.85078-0.01309 0.33884 0.36126-0.67391 0.49278-0.77936 0.49992-1.4056 0.09524zm35.374 0.02211c-0.10126-0.16384-0.03776-0.38834 0.14111-0.49889 0.17887-0.11055 0.32522 0.02349 0.32522 0.29789 0 0.56209-0.19202 0.64485-0.46633 0.201zm-14.254-0.34211c0-0.176 0.1525-0.32 0.33889-0.32s0.24989 0.144 0.14111 0.32c-0.10877 0.176-0.26127 0.32-0.33889 0.32-0.07761 0-0.14111-0.144-0.14111-0.32zm10.991-1.0865c0.62673-0.94391 1.1691-1.0015 1.1691-0.1242 0 0.59929-0.17063 0.76266-0.79654 0.76266-0.72421 0-0.75804-0.05797-0.37261-0.63846zm-27.631 0.12646c0-0.176 0.144-0.32 0.32-0.32s0.32 0.144 0.32 0.32-0.144 0.32-0.32 0.32-0.32-0.144-0.32-0.32zm18.491-0.35914c-0.11304-0.29457 0.0849-0.65596 0.50127-0.91523 0.58778-0.366 0.63603-0.36265 0.33104 0.02298-0.19637 0.24828-0.42194 0.66013-0.50127 0.91523-0.12287 0.39511-0.17191 0.39171-0.33104-0.02298zm-23.427-1.5274c-0.53167-0.20828-0.54591-0.26868-0.1034-0.43849 0.28226-0.10832 0.68537 0.0105 0.89579 0.26404 0.41483 0.49984 0.17373 0.55292-0.79239 0.17444zm33.693-0.12852c0.23994-0.29585 0.56229-0.46001 0.71633-0.36481 0.15404 0.0952 0.20288-0.02806 0.10853-0.27394-0.10297-0.26835 0.3142-0.81313 1.0437-1.3629 0.66836-0.50372 1.0228-0.67634 0.78766-0.3836s-0.3209 0.70482-0.19056 0.91572c0.14992 0.24259 0.10126 0.29958-0.13245 0.15513-0.21158-0.13076-0.36944-0.03826-0.36944 0.21648 0 0.38511-0.34593 0.63114-2.08 1.4793-0.176 0.08609-0.12368-0.08554 0.11626-0.38138zm-28.516-0.11688c0.22-0.08877 0.58-0.08877 0.8 0s0.04 0.1614-0.4 0.1614-0.62-0.07263-0.4-0.1614zm2.3658-0.07297c-0.30266-0.19178-0.32689-0.3414-0.08-0.49399 0.19479-0.12039 0.35416-0.07694 0.35416 0.09654 0 0.17348 0.252 0.38128 0.56 0.46176 0.39679 0.10369 0.42011 0.15573 0.08 0.17857-0.264 0.01773-0.67537-0.09157-0.91416-0.24288zm2.5142-1.4562c0-0.27439 0.144-0.49889 0.32-0.49889s0.32 0.1355 0.32 0.30111-0.144 0.39011-0.32 0.49889c-0.176 0.10878-0.32-0.02672-0.32-0.30111zm30.894-0.15678c-0.10126-0.16384-0.03776-0.38834 0.14111-0.49889 0.17887-0.11055 0.32522 0.02349 0.32522 0.29789 0 0.56209-0.19202 0.64485-0.46633 0.201zm-14.254-0.34211c0-0.176 0.144-0.32 0.32-0.32s0.32 0.144 0.32 0.32-0.144 0.32-0.32 0.32-0.32-0.144-0.32-0.32zm10.433-0.58639c-0.07718-0.12488 0.20292-0.5328 0.62245-0.90648 0.75-0.66804 0.76613-0.66886 0.96282-0.04916 0.11002 0.34664 0.13437 0.69593 0.05412 0.77618-0.27323 0.27323-1.4985 0.40736-1.6394 0.17946zm-41.765-1.6003c-0.22547-0.42129-0.20287-0.58667 0.08017-0.58667 0.21678 0 0.39414 0.264 0.39414 0.58667 0 0.32266-0.036076 0.58666-0.08017 0.58666-0.044093 0-0.22146-0.264-0.39414-0.58666zm33.571-0.05334c0-0.176 0.1525-0.32 0.33889-0.32s0.24989 0.144 0.14111 0.32c-0.10877 0.176-0.26127 0.32-0.33889 0.32-0.07761 0-0.14111-0.144-0.14111-0.32zm-18.88-0.65888c0-0.18639 0.144-0.24989 0.32-0.14111 0.176 0.10878 0.32 0.26127 0.32 0.33889 0 0.07761-0.144 0.14111-0.32 0.14111s-0.32-0.1525-0.32-0.33889zm29.227-0.41721c0-0.26436 0.22962-0.37605 0.58307-0.28362 0.32069 0.08386 0.50419 0.28011 0.40778 0.4361-0.2738 0.44301-0.99085 0.33267-0.99085-0.15248zm-8.1067-1.6439c0-0.86827 0.02896-0.8916 0.75877-0.61154 0.39896 0.1531 0.41945 0.3032 0.1092 0.8-0.52491 0.84052-0.86796 0.76603-0.86796-0.18846zm9.8333-0.67333c-0.12834-0.12833-0.23334-0.45413-0.23334-0.724 0-0.36019 0.09467-0.396 0.356-0.13467 0.1958 0.1958 0.3008 0.5216 0.23334 0.724-0.06747 0.2024-0.22767 0.263-0.356 0.13467zm-8.0022-0.75174c-0.17937-0.6859-0.003801-0.97493 0.59219-0.97493 0.24019 0 0.33016 0.25448 0.22804 0.64499-0.23636 0.90382-0.62887 1.0617-0.82023 0.32994zm-23.067-0.55696c-0.37645-0.37646-0.21006-0.9513 0.27537-0.9513 0.264 0 0.48 0.1835 0.48 0.40778 0 0.49063-0.47004 0.82885-0.75537 0.54352zm-14.579-0.83685c-0.015395-0.3528-0.16955-0.48971-0.39471-0.35056-0.23815 0.14718-0.28217 0.08712-0.12388-0.169 0.31968-0.51725 0.9518 0.07581 0.71459 0.67044-0.11242 0.28181-0.17937 0.23027-0.196-0.15089zm35.815 0.098886c0-0.176 0.144-0.32 0.32-0.32s0.32 0.144 0.32 0.32-0.144 0.32-0.32 0.32-0.32-0.144-0.32-0.32zm-41.024-0.704c0.29867-0.29867 0.46933-0.29867 0.768 0 0.29867 0.29867 0.21333 0.384-0.384 0.384-0.59733 0-0.68267-0.08533-0.384-0.384zm25.924 0.1654c0.231-0.09244 0.507-0.08107 0.61333 0.02526 0.10633 0.10633-0.08267 0.18196-0.42 0.16807-0.37278-0.015349-0.44861-0.091177-0.19333-0.19333zm16.38-0.28029c0-0.27439 0.14635-0.40844 0.32522-0.29789 0.17887 0.11055 0.24238 0.33505 0.14111 0.49889-0.27431 0.44385-0.46633 0.36109-0.46633-0.201zm8.16 0.17889c-0.10877-0.176-0.04527-0.32 0.14111-0.32 0.18639 0 0.33889 0.144 0.33889 0.32s-0.0635 0.32-0.14111 0.32c-0.07761 0-0.23011-0.144-0.33889-0.32zm-46.969-0.54586c-0.30022-0.30022-0.94308-0.55222-1.4286-0.56-0.65917-0.010563-0.85891-0.15596-0.78869-0.57414 0.079154-0.47142-0.17393-0.56518-1.6-0.59276-1.4418-0.02788-1.5472-0.06787-0.70759-0.26863 1.2105-0.28945 3.6865 0.02329 3.6528 0.46139-0.013539 0.176 0.27123 0.3663 0.63281 0.42288 0.36158 0.05658 0.57089 0.24289 0.46513 0.41402-0.10576 0.17113-0.018266 0.52083 0.19444 0.77712 0.53223 0.6413 0.24654 0.58701-0.42035-0.07987zm25.049-0.094145c-0.35152-0.22717-0.11599-0.31151 0.88-0.3151 0.748-0.0027 1.36 0.1391 1.36 0.3151 0 0.40832-1.6082 0.40832-2.24 0zm-7.68-0.1227c0-0.06748 0.36-0.19151 0.8-0.27562 0.44-0.08411 0.8-0.0289 0.8 0.1227 0 0.15159-0.36 0.27562-0.8 0.27562s-0.8-0.05521-0.8-0.1227zm5.9947-0.55701c0.21707-0.21869 0.47528-0.31701 0.5738-0.21849 0.09852 0.09852-0.07908 0.27746-0.39467 0.39762-0.45606 0.17366-0.49282 0.1369-0.17913-0.17914zm15.353-0.92029c-0.09205-0.352-0.04136-0.64 0.11263-0.64 0.154 0 0.20076-0.252 0.10392-0.56-0.1632-0.51903-0.14153-0.51794 0.2962 0.01487 0.46012 0.56008 0.39079 1.8251-0.10003 1.8251-0.13495 0-0.32067-0.288-0.41272-0.64zm-24.067-0.2449c-0.176-0.1293-0.36231-0.4871-0.41403-0.7951-0.07241-0.43128 0.12987-0.56 0.88-0.56 1.0201 0 1.2769 0.52913 0.59003 1.216-0.44232 0.44232-0.61273 0.46476-1.056 0.1391zm2.56-1.0351c-0.11172-0.352-0.33742-0.64-0.50156-0.64-0.16414 0-0.29844-0.192-0.29844-0.42667s0.20227-0.42667 0.44949-0.42667 0.37581 0.192 0.28576 0.42667c-0.09606 0.25034 0.0566 0.42667 0.3694 0.42667 0.29322 0 0.44514 0.14235 0.33762 0.31633-0.11211 0.1814 0.01634 0.23504 0.30111 0.12576 0.27314-0.10481 0.49662-0.046571 0.49662 0.12943 0 0.26513-0.70375 0.70847-1.1246 0.70847-0.061745 0-0.20367-0.288-0.31539-0.64zm9.449 0.01231c-0.40189-0.25416-0.38813-0.3297 0.0938-0.51463 0.31066-0.11921 0.65462-0.12696 0.76436-0.01721 0.10974 0.10974 0.02304 0.19953-0.19268 0.19953-0.21572 0-0.30322 0.144-0.19445 0.32 0.24355 0.39407 0.13703 0.39686-0.47103 0.01231zm-16.009-0.47639c0-0.24823 1.2463-0.39454 1.5838-0.18594 0.20835 0.12877-0.05999 0.24389-0.60458 0.25938-0.53856 0.015313-0.97921-0.017733-0.97921-0.073434zm-5.2596-0.79333c-0.33175-0.36658-0.50464-0.76506-0.3842-0.8855 0.30365-0.30365 1.2667 0.71418 1.1127 1.176-0.0793 0.23791-0.34683 0.13122-0.72852-0.29053zm7.9818 0.30108c-0.11211-0.1814 0.01634-0.23504 0.30112-0.12576 0.55437 0.21273 0.6558 0.4421 0.1955 0.4421-0.16561 0-0.38909-0.14235-0.49662-0.31634zm22.597-0.29238c-0.3465-0.21948-0.3706-0.54238-0.11307-1.5151 0.28425-1.0737 0.33162-1.1205 0.36034-0.35618 0.01819 0.484 0.17707 0.88 0.35307 0.88s0.32 0.1525 0.32 0.33888-0.16847 0.23476-0.37438 0.10751c-0.25173-0.15558-0.30744-0.05693-0.17004 0.30111 0.23444 0.61094 0.21927 0.62078-0.37592 0.24378zm12.76-0.34124c0-0.17048 0.252-0.21552 0.56-0.10009 0.4904 0.18378 0.50542 0.14276 0.12082-0.33004-0.24155-0.29695-0.29296-0.53991-0.11424-0.53991 0.38959 0 0.74876 0.81799 0.47804 1.0887-0.30518 0.30518-1.0446 0.22117-1.0446-0.11867zm2.2965-0.22353c0.1557-0.80281 0.90346-0.91304 0.90346-0.13318 0 0.39307-0.20662 0.66667-0.50346 0.66667-0.298 0-0.46124-0.21772-0.4-0.53348zm-22.178-0.21596c0.19602-0.23619 0.24965-0.54728 0.11918-0.6913-0.13047-0.14402-0.05023-0.15395 0.17832-0.02207 0.32015 0.18475 0.32952 0.34344 0.04082 0.6913-0.2061 0.24833-0.44672 0.45151-0.53472 0.45151s3.2e-4 -0.19325 0.19641-0.42944zm4.4258 4.16e-4c-0.09055-0.23596-0.03616-0.63196 0.12086-0.88 0.20778-0.32821 0.28682-0.21142 0.29039 0.42902 0.0053 0.95559-0.15159 1.1277-0.41126 0.45098zm-29.841-1.1989c-0.32977-0.53357 0.41191-1.1454 0.85335-0.704 0.36926 0.36926 0.13815 1.0519-0.35612 1.0519-0.15523 0-0.37898-0.15655-0.49723-0.34788zm12.068-0.29212c0-0.44 0.07263-0.62 0.1614-0.4 0.08877 0.22 0.08877 0.58 0 0.8s-0.1614 0.04-0.1614-0.4zm-0.69053-0.48c0-0.44 0.12403-0.8 0.27562-0.8s0.20681 0.36 0.1227 0.8c-0.08411 0.44-0.20814 0.8-0.27562 0.8-0.067483 0-0.1227-0.36-0.1227-0.8zm-9.3827-0.82205c-0.66739-0.69188-1.0896-1.258-0.93815-1.258 0.36276 0 2.4788 2.1887 2.2943 2.3732-0.07851 0.07851-0.6888-0.42333-1.3562-1.1152zm24.748 0.10205c-0.0027-0.396 0.1391-0.72 0.3151-0.72 0.40094 0 0.40094 0.3396 0 0.96-0.25084 0.38815-0.31114 0.34222-0.3151-0.24zm-28.76-0.41065c-0.84966-0.70784-0.77099-0.76804 0.41462-0.31728 0.45146 0.17164 0.82083 0.45964 0.82083 0.64 0 0.485-0.38734 0.38382-1.2355-0.32272zm-5.3077-0.28202c-0.10303-0.16671-0.050933-0.38741 0.11578-0.49044 0.16671-0.10303 0.38741-0.05093 0.49044 0.11578 0.10303 0.16671 0.050933 0.38741-0.11578 0.49044-0.16671 0.10303-0.38741 0.05093-0.49044-0.11578zm16.783-0.33729c0-0.41619 0.15603-0.57008 0.45979-0.45352 0.25289 0.09704 0.38148 0.38052 0.28576 0.62996-0.25616 0.66753-0.74556 0.55171-0.74556-0.17644zm-18.88-0.33004c0-0.176 0.144-0.32 0.32-0.32s0.32 0.144 0.32 0.32-0.144 0.32-0.32 0.32-0.32-0.144-0.32-0.32zm56.753-0.15231c0.09968-0.25977-0.01251-1.1162-0.24935-1.9031-0.23683-0.78692-0.35098-1.5104-0.25367-1.6077 0.45639-0.45639 0.71026-0.06887 0.71026 1.0842 0 0.69361 0.144 1.3501 0.32 1.4589 0.52154 0.32233 0.37078 1.44-0.19424 1.44-0.32191 0-0.44645-0.17665-0.33299-0.47231zm-36.158-0.32891c-0.11013-0.28699-0.05639-0.66563 0.11941-0.84143 0.21285-0.21285 0.37737-0.09886 0.49245 0.34119 0.20886 0.79868-0.32869 1.2382-0.61186 0.50024zm16.045-0.15877c-0.10877-0.176-0.04527-0.32 0.14111-0.32 0.18639 0 0.33889 0.144 0.33889 0.32s-0.0635 0.32-0.14111 0.32c-0.07761 0-0.23011-0.144-0.33889-0.32zm-35.108-1.6798c0.15491-2.8168 0.29813-3.0833 0.34402-0.6402 0.023968 1.276-0.064422 2.3201-0.19642 2.3202-0.132 1.09e-4 -0.19842-0.75589-0.1476-1.68zm56.921 0.50647c-0.32804-0.32804-0.25282-1.6445 0.10667-1.8667 0.19044-0.1177 0.32 0.26334 0.32 0.94111 0 1.1695-0.05766 1.2946-0.42667 0.92555zm-20.532-0.42413c-0.10791-0.17461-0.04879-0.57061 0.13139-0.88 0.28101-0.48254 0.32897-0.4374 0.33732 0.31747 0.01018 0.92024-0.13784 1.0979-0.4687 0.56253zm-18.722-0.78365c0-0.42961 0.12891-0.86079 0.28647-0.95816 0.37653-0.23271 0.70427 0.64682 0.46925 1.2593-0.28776 0.7499-0.75572 0.56345-0.75572-0.30112zm2.2653-0.04555c0.01535-0.37278 0.09118-0.44861 0.19333-0.19333 0.09244 0.231 0.08107 0.507-0.02526 0.61333-0.10633 0.10633-0.18196-0.08267-0.16807-0.42zm14.555-0.03953c-0.17366-0.45606-0.1369-0.49282 0.17914-0.17914 0.2187 0.21707 0.31702 0.47528 0.21849 0.5738-0.09852 0.09852-0.27746-0.07908-0.39763-0.39467zm5.1394 0.29092c-0.08677-0.1404-0.02547-0.4644 0.13622-0.72 0.16169-0.2556 0.29619-0.78711 0.29889-1.1811 0.0039-0.5716 0.17021-0.70273 0.82271-0.64873 0.64188 0.05312 0.72197 0.1384 0.37227 0.39642-0.52288 0.38579-1.3562 1.8223-1.2581 2.1687 0.09021 0.31847-0.17242 0.30768-0.37202-0.01528zm-1.798-1.2647 0.0019-1.2 0.47633 0.9133c0.47198 0.90482 0.40185 1.4867-0.17909 1.4867-0.16561 0-0.30023-0.54-0.29914-1.2zm-20.83-1.12c-0.22576-0.572-0.47251-1.162-0.54833-1.3111-0.07582-0.14909 0.13528-0.1249 0.46911 0.05376 0.3598 0.19256 0.63756 0.72643 0.68211 1.3111 0.09647 1.266-0.08849 1.2495-0.60289-0.05376zm17.948 0.26667c0-0.27867 0.228-0.50667 0.50667-0.50667 0.5651 0 0.46668 0.68888-0.12667 0.88667-0.209 0.06967-0.38-0.10133-0.38-0.38zm19.098-0.06254c0.15833-0.4126 0.09776-0.48353-0.24366-0.28532-0.24991 0.14509-0.35145 0.14978-0.22564 0.01042 0.12581-0.13936 0.08014-0.55845-0.10148-0.9313-0.2651-0.54425-0.20119-0.52018 0.32414 0.12207 0.74102 0.90595 0.80305 1.1591 0.35226 1.4377-0.1879 0.11613-0.23078-0.02744-0.10562-0.35361zm-55.578-1.0449c0-0.37355 0.1355-0.67918 0.30111-0.67918 0.55439 0 0.65696 0.56323 0.17536 0.96292-0.39652 0.32908-0.47648 0.28146-0.47648-0.28374zm60.962 0.28448c-0.11211-0.1814 0.01635-0.23504 0.30111-0.12576 0.55438 0.21273 0.6558 0.4421 0.19551 0.4421-0.16561 0-0.38909-0.14235-0.49662-0.31634zm-59.042-0.80366c0-0.264 0.144-0.48 0.32-0.48s0.32 0.216 0.32 0.48-0.144 0.48-0.32 0.48-0.32-0.216-0.32-0.48zm41.728-0.34525c0-0.5165 0.10667-0.66808 0.32-0.45475 0.39588 0.39588 0.93409 0.42407 0.69448 0.03638-0.14591-0.2361 1.0889-0.79188 1.2968-0.58369 0.03697 0.03702-0.46794 0.45194-1.122 0.92206l-1.1892 0.85475zm-10.804-0.61475c0.10131-0.264 0.24079-0.48 0.30996-0.48 0.06917 0 0.12576 0.216 0.12576 0.48s-0.13948 0.48-0.30996 0.48c-0.17047 0-0.22707-0.216-0.12576-0.48zm-1.4523-0.45347c-0.24642-0.15602-1.589-0.25983-2.9834-0.2307-1.3945 0.02913-2.6992-0.04824-2.8993-0.17194-0.20015-0.1237 0.06239-0.21781 0.58344-0.20914 0.52104 0.0087 1.3383-0.13859 1.816-0.32726 0.5486-0.21664 0.93876-0.22963 1.0589-0.03526 0.10462 0.16928 0.57772 0.31288 1.0513 0.31911 0.78927 0.01039 2.8727 0.9177 2.1411 0.93242-0.176 0.0035-0.52161-0.12121-0.76802-0.27723zm19.577-0.03335c-0.39131-0.15744-1.2913-0.32046-2-0.36228-1.3579-0.08013-1.6966-0.40955-0.69127-0.67244 0.69213-0.181 3.8827 0.72848 3.8827 1.1068 0 0.31394-0.27315 0.29742-1.1915-0.07205zm8.914-0.19192c-0.33758-0.38154-0.35062-0.57964-0.05714-0.86783 0.29079-0.28555 0.35608-0.26389 0.27743 0.09202-0.05657 0.256 0.10114 0.472 0.35048 0.48 0.24933 8e-3 0.51333 0.19455 0.58667 0.41455 0.18693 0.56079-0.63038 0.47694-1.1574-0.11874zm-34.603-1.1001c0-0.18639-0.13405-0.25604-0.29789-0.15478-0.51878 0.32062-0.67642-0.37609-0.17859-0.78926 0.26206-0.21749 0.48718-0.34181 0.50026-0.27626 0.22948 1.1502 0.26469 1.5592 0.13421 1.5592-0.086896 0-0.15799-0.1525-0.15799-0.33889zm7.36 0.018886c0-0.176 0.144-0.32 0.32-0.32s0.32 0.144 0.32 0.32-0.144 0.32-0.32 0.32-0.32-0.144-0.32-0.32zm-2.72-0.96c-0.1157-0.1872 0.2163-0.32 0.8-0.32s0.9157 0.1328 0.8 0.32c-0.10877 0.176-0.46877 0.32-0.8 0.32-0.33123 0-0.69123-0.144-0.8-0.32zm16.42-0.2186c0.231-0.092439 0.507-0.08107 0.61334 0.025264 0.10633 0.10633-0.08267 0.18197-0.42 0.16807-0.37278-0.015354-0.44861-0.091181-0.19334-0.19333zm4.16 0c0.231-0.092439 0.507-0.08107 0.61334 0.025264 0.10633 0.10633-0.08267 0.18197-0.42 0.16807-0.37278-0.015354-0.44861-0.091181-0.19334-0.19333zm5.18-0.4214c0-0.176 0.144-0.32 0.32-0.32s0.32 0.144 0.32 0.32-0.144 0.32-0.32 0.32-0.32-0.144-0.32-0.32zm-33.262-0.77847c-0.32496-0.39155-0.34539-0.622-0.078795-0.8886 0.2666-0.2666 0.41199-0.22432 0.56062 0.16301 0.32721 0.85271 0.0145 1.3236-0.48183 0.72559zm32.302-0.20041c0-0.18639 0.144-0.24989 0.32-0.14111s0.32 0.26127 0.32 0.33889c0 0.077613-0.144 0.14111-0.32 0.14111s-0.32-0.1525-0.32-0.33889zm-0.87565-1.2128c0.06826-0.90619 2.4757-0.62362 2.4757 0.29059 0 0.16561-0.144 0.30111-0.32 0.30111s-0.32-0.19634-0.32-0.43631c0-0.25373-0.30129-0.41569-0.72-0.38704-0.396 0.027101-0.684 0.22344-0.64 0.43631 0.044 0.21287-0.05505 0.38704-0.22011 0.38704s-0.28005-0.26627-0.25554-0.5917zm-53.671-1.3062c-0.23665-0.38291 0.36532-0.76231 0.79155-0.49889 0.35787 0.22118 0.12293 0.79677-0.32522 0.79677-0.15523 0-0.36508-0.13405-0.46633-0.29789zm1.8546-0.82658c0.039565-0.61846 0.21139-1.1225 0.38183-1.12 0.17044 0.00246 0.29549 0.14847 0.27789 0.32447s-0.0536 0.68-0.08 1.12-0.18382 0.8-0.34983 0.8c-0.16601 0-0.26946-0.50601-0.22989-1.1245zm-1.8683-0.79553c-0.10877-0.176-0.045272-0.32 0.14111-0.32 0.18639 0 0.33889 0.144 0.33889 0.32s-0.063502 0.32-0.14111 0.32c-0.077613 0-0.23011-0.144-0.33889-0.32zm48.48 0c0-0.176 0.2795-0.32 0.62111-0.32s0.71011 0.144 0.81889 0.32c0.11217 0.18149-0.15668 0.32-0.62111 0.32-0.45039 0-0.81889-0.144-0.81889-0.32zm2.2679-1.1865c-0.18381-0.40342-0.22081-0.73349-0.082221-0.73349 0.38596 0 1.5391 0.93753 1.1743 0.95472-0.176 0.00829-0.10581 0.1505 0.15596 0.31601 0.37691 0.2383 0.33134 0.29004-0.21894 0.24859-0.3822-0.02879-0.8453-0.38242-1.0291-0.78583zm-50.428-0.41349c-0.10877-0.176-0.045272-0.32 0.14111-0.32 0.18639 0 0.33889 0.144 0.33889 0.32s-0.063502 0.32-0.14111 0.32-0.23011-0.144-0.33889-0.32zm1.44-0.30111c0-0.16561 0.144-0.39011 0.32-0.49889s0.32 0.026728 0.32 0.30111c0 0.27439-0.144 0.49889-0.32 0.49889s-0.32-0.1355-0.32-0.30111z" fill="#7ec76d"/>
 </g>
</svg>
