<?xml version="1.0" encoding="UTF-8" standalone="no"?>
<svg
   xmlns:dc="http://purl.org/dc/elements/1.1/"
   xmlns:cc="http://creativecommons.org/ns#"
   xmlns:rdf="http://www.w3.org/1999/02/22-rdf-syntax-ns#"
   xmlns:svg="http://www.w3.org/2000/svg"
   xmlns="http://www.w3.org/2000/svg"
   xmlns:sodipodi="http://sodipodi.sourceforge.net/DTD/sodipodi-0.dtd"
   xmlns:inkscape="http://www.inkscape.org/namespaces/inkscape"
   inkscape:version="1.0 (6e3e5246a0, 2020-05-07)"
   sodipodi:docname="tufd-logo-alt-inverted.svg"
   viewBox="0 0 59.583435 17.907322"
   height="17.907322"
   width="59.583435"
   id="svg10"
   version="1.1">
  <metadata
     id="metadata16">
    <rdf:RDF>
      <cc:Work
         rdf:about="">
        <dc:format>image/svg+xml</dc:format>
        <dc:type
           rdf:resource="http://purl.org/dc/dcmitype/StillImage" />
        <dc:title></dc:title>
      </cc:Work>
    </rdf:RDF>
  </metadata>
  <defs
     id="defs14" />
  <sodipodi:namedview
     fit-margin-bottom="0"
     fit-margin-right="0"
     fit-margin-left="0"
     fit-margin-top="0"
     inkscape:guide-bbox="true"
     showguides="true"
     inkscape:lockguides="false"
     inkscape:current-layer="g18"
     inkscape:window-maximized="1"
     inkscape:window-y="27"
     inkscape:window-x="72"
     inkscape:cy="32.366973"
     inkscape:cx="-3.7299522"
     inkscape:zoom="8.0600248"
     showgrid="false"
     id="namedview12"
     inkscape:window-height="704"
     inkscape:window-width="1294"
     inkscape:pageshadow="2"
     inkscape:pageopacity="0"
     guidetolerance="10"
     gridtolerance="10"
     objecttolerance="10"
     borderopacity="1"
     bordercolor="#666666"
     pagecolor="#ffffff">
    <sodipodi:guide
       id="guide453"
       orientation="0,-1"
       position="-19.13243,8.1775634" />
  </sodipodi:namedview>
  <g
     transform="translate(-0.14985817,-0.19576949)"
     id="g18"
     inkscape:label="Image"
     inkscape:groupmode="layer">
    <g
       style="fill:#e6e6e6"
       transform="matrix(0.28076459,0,0,0.28076459,0.0600135,0.104918)"
       id="g40">
      <path
         id="path54"
         d="m 27.793074,63.679999 c -0.02568,-0.264 -0.07962,-1.632 -0.119853,-3.04 l -0.07316,-2.56 12.439966,-12.485363 12.439968,-12.485363 v -4.06642 -4.066418 l 1.003968,-0.519171 c 2.403811,-1.24306 3.613104,-3.509075 3.372304,-6.319139 -0.270713,-3.159128 -2.331574,-5.323602 -5.560352,-5.839904 -3.811379,-0.609464 -7.470038,2.652627 -7.448444,6.641101 0.01085,2.004556 1.397516,4.374364 3.112524,5.319297 l 1.36,0.749332 v 3.257563 3.257563 l -12.48,12.476922 L 23.36,56.476921 v 3.761539 3.761539 h -4.64 -4.64 v -3.649594 -3.649593 l 1.440539,-0.844211 c 1.940093,-1.13697 2.856955,-2.89841 2.840262,-5.456602 -0.01458,-2.233664 -0.572561,-3.487459 -2.180253,-4.899033 -3.112111,-2.732467 -7.9326128,-1.842887 -9.8444038,1.8167 -1.7998249,3.445258 -0.8018572,7.096973 2.3838557,8.722887 l 1.1999999,0.612454 v 3.682051 3.682051 l -4.7199999,-0.08856 -4.71999991,-0.08855 v -19.2 V 25.44 l 3.01781271,-0.09277 3.0178128,-0.09277 1.873224,1.852773 1.8732245,1.852774 -0.212821,2.164427 c -0.2729194,2.775646 0.369864,4.591201 2.17144,6.133284 3.436689,2.941677 8.772515,1.609408 10.376617,-2.590873 1.843649,-4.827525 -2.673043,-10.029563 -7.609679,-8.764341 l -1.616952,0.414412 -2.605339,-2.589011 -2.6053401,-2.589012 -3.84,-0.08944 L 0.47999999,20.96 V 16.48 12 l 9.95653701,-0.0845 9.956537,-0.0845 1.772486,1.931467 1.772486,1.931467 -0.17059,1.881296 c -0.237209,2.615983 0.09642,4.007458 1.285583,5.361841 4.047502,4.609851 11.545296,1.87118 11.545296,-4.217075 0,-4.363427 -4.67337,-7.732269 -8.636307,-6.225563 -0.830666,0.315818 -1.023706,0.191114 -3.467516,-2.24 L 21.906632,7.6799999 H 11.307552 C 1.9377751,7.6799999 0.68594489,7.621293 0.51423641,7.173828 0.40740639,6.8954332 0.32,5.3268396 0.32,3.6880643 0.32,1.2459185 0.4128046,0.67286034 0.83450751,0.51103775 1.1174866,0.40244847 12.883832,0.31821548 26.981942,0.32385331 L 52.61487,0.33410391 58.469903,6.1581608 64.32494,11.982217 64.24247,31.191108 64.16,50.399999 l -3.746592,0.09004 -3.746589,0.09004 -0.533084,-1.030873 C 55.473639,48.272719 54.614867,47.50422 52.96,46.709078 c -5.251382,-2.523219 -11.103481,3.508473 -8.450137,8.709456 2.1372,4.189257 7.486345,5.0987 10.561843,1.795683 0.539881,-0.579821 1.111785,-1.382803 1.270902,-1.784407 0.281335,-0.710086 0.392938,-0.727708 4.053347,-0.64 L 64.16,54.88 l 0.08907,4.40656 c 0.06775,3.35153 -0.0089,4.442141 -0.32,4.555165 -0.224989,0.08173 -8.437123,0.186781 -18.249187,0.23344 C 30.01463,64.149655 27.834077,64.101485 27.793073,63.68 Z"
         style="fill:#e6e6e6;stroke-width:0.32" />
      <path
         id="path52"
         d="M 0.63999999,44.799999 V 25.6 H 3.6109311 6.5818623 l 1.7435478,1.765478 1.7435479,1.765478 0.0055,2.816395 c 0.0049,2.518428 0.0969,2.954629 0.869203,4.123004 1.263978,1.912188 3.850643,3.117564 6.17525,2.877644 4.662404,-0.481203 7.332059,-5.431219 5.249425,-9.733366 -1.282146,-2.648562 -5.008906,-4.262701 -7.686627,-3.329242 -1.047485,0.365155 -1.07365,0.349368 -3.628411,-2.189349 l -2.5733181,-2.557156 -3.84,-0.08944 L 0.79999999,20.96 V 16.48 12 l 9.60470501,-0.08458 9.604705,-0.08458 2.009187,2.027207 c 1.874684,1.891497 1.986836,2.085998 1.675295,2.905412 -1.059127,2.785715 0.475098,6.489815 3.284646,7.930166 3.310754,1.6973 7.187455,0.425275 8.955759,-2.938566 0.762349,-1.450217 0.899392,-2.044392 0.789002,-3.420828 -0.338256,-4.217655 -4.583581,-7.262894 -8.464586,-6.07178 -1.043665,0.32031 -1.113465,0.277631 -3.742009,-2.2880262 L 21.838198,7.3599999 H 11.239099 0.63999999 v -3.36 -3.35999991 H 26.643334 52.646668 l 5.679213,5.68579541 5.679212,5.6857956 -0.08255,19.194204 -0.08255,19.194204 -3.425626,0.09068 -3.425625,0.09068 -0.553453,-0.890678 c -1.537981,-2.475104 -3.385017,-3.610682 -5.872825,-3.610682 -3.990368,0 -6.722471,2.666074 -6.722471,6.56 0,2.17248 0.794794,3.873456 2.445783,5.234343 1.179116,0.971926 3.605568,1.728332 4.778371,1.489577 0.338717,-0.06895 1.009206,-0.208125 1.489977,-0.30927 1.070304,-0.225168 2.991693,-1.866967 3.630432,-3.102151 l 0.471872,-0.912499 h 3.671783 3.671782 v 4.48 4.48 h -18.08 H 27.84 v -2.961558 -2.961559 l 12.319999,-12.316883 12.32,-12.316883 v -3.921558 c 0,-3.584099 0.05748,-3.969748 0.667965,-4.481558 2.383693,-1.998413 3.414618,-3.274276 3.76272,-4.656716 0.754333,-2.995728 -0.737056,-6.188692 -3.564371,-7.63108 -1.871888,-0.954966 -5.181456,-0.717984 -6.757136,0.483845 -2.113859,1.61232 -2.589178,2.623629 -2.589178,5.50886 0,2.344523 0.08421,2.695312 0.905504,3.772085 0.498026,0.652947 1.470026,1.543544 2.16,1.979105 l 1.254496,0.791929 v 2.957524 2.957525 l -12.48,12.476922 L 23.36,56.156921 v 3.921539 3.921539 h -4.64 -4.64 v -3.512624 c 0,-3.486144 0.0066,-3.516742 0.88,-4.059078 2.398716,-1.489533 3.592216,-3.38449 3.644679,-5.786771 0.0856,-3.919415 -2.721107,-6.801527 -6.62357,-6.801527 -3.0550083,0 -5.2217846,1.559818 -6.380142,4.592931 -1.0620756,2.781008 -0.081463,5.421434 2.8100661,7.566474 l 1.5089667,1.119405 v 2.934422 c 0,1.613933 -0.087406,3.162202 -0.1942364,3.440595 -0.1642208,0.427955 -0.8812419,0.506173 -4.64,0.506173 H 0.63999999 Z"
         style="fill:#e6e6e6;stroke-width:0.32" />
      <path
         id="path50"
         d="m 0.85333333,63.786665 c -0.11733334,-0.117332 -0.21333334,-8.757331 -0.21333334,-19.2 V 25.6 H 3.6100169 6.5800341 l 1.8561072,1.875678 1.8561067,1.875679 -0.3969304,1.324836 c -0.848063,2.830581 0.8883604,6.489243 3.6820454,7.758107 6.62494,3.008979 12.716735,-5.023571 7.994101,-10.540907 -1.525487,-1.782189 -3.373363,-2.441792 -6.121687,-2.18515 L 13.311332,25.907935 10.694765,23.353967 8.0781986,20.8 H 4.3498111 0.62142389 l 0.0892881,-4.24 0.089288,-4.24 9.76646901,-0.08452 9.766469,-0.08452 1.707639,1.729118 1.70764,1.729119 -0.335952,1.566487 c -1.372983,6.401999 5.925644,10.917221 10.949062,6.773527 2.906509,-2.397508 3.263712,-7.114066 0.743399,-9.815989 -1.625901,-1.743063 -4.740474,-2.647889 -6.788222,-1.972072 L 27.127359,12.553607 24.521491,9.9612757 21.915623,7.3689445 11.357811,7.2844722 0.79999999,7.1999999 v -3.2 -3.19999991 L 26.729791,0.71813384 52.659583,0.6362677 l 5.670208,5.7020436 5.670208,5.7020437 v 19.099822 19.099822 h -3.607232 -3.607229 l -0.632771,-1.17711 c -0.776829,-1.445101 -2.969744,-2.886237 -4.812307,-3.162547 -2.658506,-0.398666 -5.823974,1.36856 -7.200035,4.019657 -1.030886,1.986093 -0.211357,6.184624 1.511277,7.742403 1.010627,0.913911 3.399424,1.843331 4.748297,1.847443 2.409914,0.0074 5.479111,-1.936611 6.088375,-3.856233 0.177036,-0.557795 0.528368,-0.613613 3.86222,-0.613613 h 3.667466 l -0.08903,4.4 -0.08903,4.4 -18,0.08267 -18,0.08266 v -2.964202 -2.964204 l 12.479999,-12.476922 12.48,-12.476921 v -4.059976 c 0,-3.720733 0.05127,-4.076247 0.613613,-4.254727 1.92161,-0.609895 3.857389,-3.669227 3.863261,-6.105545 0.0048,-1.991236 -1.40081,-4.512586 -3.125418,-5.606299 -2.741203,-1.738419 -5.787558,-1.521825 -8.110307,0.576638 -1.501997,1.356962 -2.043142,2.311141 -2.34647,4.137428 -0.412272,2.482219 1.048358,5.540951 3.19904,6.69917 l 1.106281,0.595771 v 3.208769 3.20877 l -12.48,12.476922 L 23.04,56.476921 v 3.761539 3.761539 H 18.72 14.4 l 0.0086,-3.6 0.0086,-3.6 1.302405,-0.8 c 3.674405,-2.256998 4.068923,-7.476128 0.793357,-10.495437 -2.443187,-2.252054 -5.444411,-2.516438 -8.2644338,-0.728031 -1.7312016,1.097894 -3.1285443,3.612012 -3.1285443,5.628918 0,1.942006 1.450081,4.589193 3.12,5.695702 l 1.36,0.901149 v 3.498851 3.498848 H 5.3333334 c -2.3466668,0 -4.36266676,-0.096 -4.48000007,-0.213334 z"
         style="fill:#e6e6e6;stroke-width:0.32" />
      <path
         id="path48"
         d="M 0.80278024,63.413826 C 0.57009769,62.804645 0.60052671,26.715209 0.8342364,26.106171 0.98944222,25.701712 1.5542812,25.6 3.6451676,25.6 h 2.6166947 l 1.7435478,1.765478 1.7435478,1.765478 0.00552,2.794522 c 0.00505,2.555731 0.085406,2.912329 0.9404021,4.173193 2.129892,3.140964 6.172052,4.067984 9.330213,2.13977 1.182797,-0.722154 1.794002,-1.393728 2.454906,-2.697379 1.850676,-3.650509 0.577128,-7.626708 -3.045071,-9.507148 -1.050859,-0.545547 -3.964875,-0.72476 -5.217486,-0.320879 -0.533361,0.171973 -1.15439,-0.284393 -3.184814,-2.340374 L 8.510372,20.818658 4.6551862,20.729329 0.79999999,20.64 0.70349042,17.44 C 0.65041017,15.68 0.69293525,13.772 0.79799061,13.2 L 0.98900034,12.16 H 10.504517 20.020034 L 21.836605,14 c 1.799043,1.822245 1.813651,1.852351 1.513847,3.12 -1.011937,4.278732 2.274082,8.48 6.632627,8.48 6.239295,0 9.30636,-7.551805 4.818949,-11.86534 -1.448605,-1.392475 -3.363366,-1.993875 -5.666631,-1.779809 L 27.026537,12.150849 24.527951,9.7554245 22.029366,7.3599999 H 11.718683 C 4.1259295,7.3599999 1.3067763,7.2587762 1.024,6.9759999 0.78728268,6.7392825 0.63999999,5.577613 0.63999999,3.9472588 c 0,-2.2872723 0.0836604,-2.6895149 0.61896271,-2.976 C 1.6705567,0.75098037 10.297101,0.63999999 27.007827,0.63999999 H 52.13773 L 53.325615,1.68 c 0.653335,0.572 3.317056,3.1732646 5.919379,5.780588 l 4.731498,4.740588 -0.06825,18.939412 -0.06825,18.939411 -3.36,0.08761 -3.36,0.08761 -1.12,-1.507446 C 53.194651,44.971968 48.401215,44.732938 45.207656,48.2096 c -3.378828,3.678355 -1.477126,9.690441 3.525203,11.144659 1.718084,0.499459 1.941786,0.499101 3.461168,-0.0056 1.810624,-0.601392 3.592708,-2.00808 4.316055,-3.406883 l 0.477398,-0.923184 3.426256,0.09069 3.426256,0.09069 0.09308,3.519999 c 0.05119,1.936 0.01245,3.844 -0.0861,4.24 l -0.179174,0.72001 H 45.753903 27.84 V 61.05566 58.431324 L 31.70573,54.5211 c 2.126151,-2.150624 3.950525,-3.957674 4.054164,-4.015664 0.103641,-0.05799 1.316061,-1.28289 2.694272,-2.721997 1.378208,-1.439107 2.505833,-2.565654 2.505833,-2.50344 0,0.06222 1.152,-1.089785 2.56,-2.56 1.408,-1.470214 2.56,-2.622214 2.56,-2.56 0,0.06222 1.152,-1.089785 2.56,-2.56 1.408,-1.470214 2.56,-2.600617 2.56,-2.512006 0,0.08861 0.36,-0.266726 0.8,-0.789635 0.760743,-0.904093 0.8,-1.148691 0.8,-4.984552 0,-2.218594 0.11808,-4.033806 0.2624,-4.033806 0.630403,0 3.076467,-2.478621 3.614039,-3.662142 1.256086,-2.765405 0.475843,-6.220823 -1.835111,-8.127073 C 50.29933,9.7442037 43.523567,12.874851 43.523567,18.72 c 0,2.450548 1.514557,5.04479 3.563933,6.104564 0.906762,0.468905 0.912499,0.491096 0.912499,3.530126 v 3.058255 l -12.48,12.508677 L 23.04,56.4303 v 3.624848 3.624851 H 18.72 14.4 v -3.32839 -3.328394 l 1.081623,-0.638173 c 2.484647,-1.465977 3.895013,-5.039836 3.121079,-7.908793 -0.431009,-1.597738 -2.390769,-3.80665 -3.958404,-4.461651 -2.587091,-1.080954 -5.8402617,-0.336058 -7.8013835,1.786326 -2.7363488,2.961357 -2.1301341,8.203866 1.1829411,10.230006 1.5159951,0.92712 1.6294716,1.28586 1.5085615,4.769069 l -0.094417,2.72 -4.2372198,0.16 C 1.855738,63.806386 0.93136297,63.750469 0.80278024,63.413826 Z"
         style="fill:#e6e6e6;stroke-width:0.32" />
      <path
         id="path46"
         d="m 0.90666664,63.360578 c -0.0586666,-0.17568 -0.0683853,-8.657936 -0.021597,-18.849455 L 0.97013938,25.981084 2.6352907,25.868782 c 2.8882526,-0.194791 3.9694564,0.02373 4.3601607,0.881235 0.1929552,0.42349 0.5448138,0.769983 0.7819075,0.769983 0.2370941,0 0.7627242,0.353019 1.1680675,0.784487 0.6624839,0.705182 0.7314973,1.063151 0.6826823,3.541035 -0.044505,2.259066 0.060914,2.942977 0.5841223,3.789546 1.802201,2.916023 4.698813,4.129235 8.148783,3.413024 1.708653,-0.354713 2.543564,-1.023673 4.737671,-3.795977 0.204413,-0.258282 0.283204,-1.484164 0.198777,-3.092707 C 23.176883,29.862073 23.035593,29.334632 22.272907,28.334699 21.786328,27.696762 20.798343,26.78448 20.077385,26.307406 18.903043,25.530319 18.475281,25.44 15.969253,25.44 h -2.797298 l -2.185978,-2.297885 -2.1859771,-2.297883 -3.84,-0.102116 L 1.12,20.64 v -4.16 -4.16 h 9.466951 9.466951 l 1.760656,1.76 c 1.695917,1.695285 1.749593,1.801182 1.459763,2.88 -0.500321,1.862318 -0.08274,4.279903 1.014792,5.875108 1.293401,1.879894 3.124621,2.764892 5.721062,2.764892 3.204362,0 4.988989,-1.132251 6.489549,-4.117274 1.339152,-2.66394 0.290602,-6.546733 -2.258032,-8.361521 -1.484205,-1.056846 -3.962144,-1.619155 -5.702443,-1.294031 l -1.455095,0.271841 -2.53145,-2.528051 -2.53145,-2.5280511 -9.970627,0.013413 C 6.566782,7.0637026 1.828,7.0630473 1.52,7.054869 1.0270083,7.0417791 0.95999999,6.6762402 0.95999999,3.9999999 V 0.95999999 L 26.8,0.96828178 52.639999,0.9765636 58.184466,6.6482818 63.728933,12.32 63.699493,31.024195 c -0.02275,14.457366 -0.119139,18.763068 -0.424467,18.963491 -0.217257,0.142611 -1.723101,0.239478 -3.34632,0.215257 -2.702108,-0.04032 -2.970902,-0.101408 -3.183398,-0.723491 -0.127654,-0.373699 -0.220298,-0.751453 -0.205878,-0.839453 0.01443,-0.088 -0.267175,-0.448 -0.625764,-0.8 -0.358592,-0.352 -0.535734,-0.424 -0.393654,-0.16 0.177245,0.329341 0.06713,0.301175 -0.350835,-0.08973 -1.530272,-1.431216 -2.085539,-1.712557 -3.527303,-1.787187 -0.836352,-0.0433 -1.639708,-0.152304 -1.785241,-0.24225 -0.14553,-0.08994 -1.035626,0.201222 -1.977987,0.64703 -1.792183,0.84784 -3.536352,2.551392 -4.082759,3.98769 -0.483846,1.27185 -0.386547,3.960131 0.193588,5.348586 1.096176,2.623523 4.563657,4.592943 7.321391,4.158319 2.516621,-0.39662 5.325306,-2.547206 5.462333,-4.182454 0.01603,-0.191312 1.378023,-0.32 3.386813,-0.32 h 3.36 l 0.16,3.04 c 0.088,1.672 0.108662,3.582237 0.04591,4.244966 l -0.114083,1.20497 -17.742515,-0.01533 -17.742515,-0.01533 0.06161,-2.309638 c 0.03388,-1.270298 0.185511,-2.643424 0.33695,-3.051386 0.324682,-0.874669 23.155971,-23.790252 23.429859,-23.516364 0.465978,0.46598 0.844771,-1.851524 0.844771,-5.168487 0,-2.926964 0.09242,-3.660397 0.48,-3.809125 0.264,-0.101306 0.48,-0.381598 0.48,-0.622871 0,-0.241274 0.35473,-0.600304 0.788285,-0.797846 0.945376,-0.430741 2.220163,-2.361603 2.700224,-4.089909 C 57.620137,18.955736 57.1463,15.36 56.598364,15.36 c -0.153101,0 -0.278365,-0.201083 -0.278365,-0.446851 0,-0.88062 -2.132589,-2.333004 -4.278585,-2.913898 l -2.123412,-0.57478 -1.956121,0.767764 C 46.886015,12.614506 45.935058,13.14 45.848642,13.36 c -0.08641,0.22 -0.357708,0.4 -0.602879,0.4 -0.245168,0 -0.445764,0.205714 -0.445764,0.457143 0,0.251428 -0.238278,0.695422 -0.52951,0.986651 -0.337718,0.337721 -0.603299,1.334554 -0.733235,2.752154 -0.290957,3.174286 0.773142,5.358943 3.429916,7.04181 l 1.047172,0.663304 -0.09972,2.845217 -0.09972,2.845216 -12.307453,12.341848 c -6.769099,6.788016 -12.361417,12.399895 -12.427374,12.470839 -0.06596,0.07095 -0.0964,1.419804 -0.06764,2.997462 0.02875,1.577657 -0.04089,3.239693 -0.154769,3.693411 l -0.207047,0.824944 H 18.525309 14.4 v -3.378886 c 0,-2.171104 0.114384,-3.308192 0.32,-3.181114 0.176,0.108775 0.32,0.04527 0.32,-0.141113 0,-0.186388 0.189059,-0.338887 0.420131,-0.338887 1.284591,0 3.487512,-3.935827 3.466074,-6.192627 -0.022,-2.315498 -0.601914,-3.557325 -2.535132,-5.428669 -1.175118,-1.13751 -1.424589,-1.233616 -3.63632,-1.400889 -2.120947,-0.160407 -2.54879,-0.09135 -4.0046818,0.646409 -1.7746652,0.89929 -3.4733849,3.052426 -3.8041497,4.821776 -0.4390214,2.348445 1.6079882,7.019491 3.2576185,7.433523 0.4253379,0.106752 0.9135431,0.456064 1.0849008,0.77625 0.4508707,0.842461 0.3942352,5.533552 -0.072441,6.000227 -0.4816231,0.481622 -8.1501635,0.541222 -8.30933326,0.06458 z"
         style="fill:#e6e6e6;stroke-width:0.32" />
      <path
         id="path44"
         d="m 1.3573751,63.414591 c -0.3174969,-0.201565 -0.38515528,-4.175459 -0.32,-18.7951 L 1.12,26.08 3.6186755,25.9862 6.1173509,25.8924 7.4905922,27.346197 C 8.2458748,28.145791 9.0409323,28.8 9.2573867,28.8 c 0.2932324,0 0.3376772,0.521763 0.1743546,2.046846 -0.3529926,3.296197 -0.015664,4.442376 1.8779267,6.380821 1.380175,1.41287 1.942404,1.753584 3.434544,2.081344 1.47954,0.324995 2.095509,0.310835 3.607228,-0.08292 1.002659,-0.261158 2.046049,-0.697869 2.318645,-0.970464 0.272596,-0.272595 0.610207,-0.495629 0.750248,-0.495629 0.140041,0 0.650898,-0.598816 1.135238,-1.330704 0.791784,-1.196467 0.880619,-1.61223 0.880619,-4.12143 0,-2.421921 -0.100186,-2.931795 -0.758095,-3.858169 C 20.894343,25.938071 19.507068,25.28 15.996082,25.28 H 13.411608 L 10.988135,22.88 8.5646613,20.48 5.6423308,20.42527 C 4.0350489,20.395162 2.36,20.359162 1.92,20.345266 L 1.12,20.32 v -3.84 -3.84 l 9.248557,-0.08499 c 7.88443,-0.07245 9.359393,-0.01237 10,0.407377 0.413294,0.2708 0.751443,0.705044 0.751443,0.964987 0,0.259942 0.216,0.472623 0.48,0.472623 0.264,0 0.48,0.156918 0.48,0.348706 0,0.191788 0.318821,0.606873 0.708492,0.922409 0.625478,0.506482 0.662973,0.673607 0.32,1.426351 -0.837849,1.838879 -0.137767,4.845154 1.533346,6.584447 0.675392,0.702948 1.371275,1.278087 1.546407,1.278087 0.175132,0 0.374538,0.16835 0.443125,0.374112 0.07702,0.231072 1.180679,0.429538 2.886523,0.519072 2.457516,0.128986 2.856938,0.07014 3.625118,-0.534113 C 33.617823,24.945582 34.195193,24.64 34.426047,24.64 c 0.230858,0 0.959914,-0.813806 1.620128,-1.808458 1.099863,-1.657016 1.197338,-1.985281 1.164,-3.92 -0.04432,-2.572004 -0.448476,-3.698066 -1.786355,-4.977122 -2.095241,-2.003116 -2.717955,-2.247406 -5.753307,-2.257015 L 26.861026,11.668511 24.636519,9.3216795 22.412013,6.9748479 12.188869,7.0074293 C 0.31598457,7.0452684 0.95999999,7.217565 0.95999999,4.0033148 c 0,-1.117034 0.0874064,-2.2587482 0.19423641,-2.5371428 C 1.3290997,1.0104855 3.8846758,0.95999999 26.776657,0.95999999 H 52.204841 L 55.68351,4.3811539 c 1.91327,1.8816348 3.392931,3.5598837 3.288137,3.7294428 -0.104794,0.1695587 -0.03557,0.2125145 0.153834,0.095457 0.321027,-0.1984045 2.361961,1.7354572 3.888416,3.6844193 0.657228,0.839145 0.666102,1.095699 0.666102,19.261114 0,10.125852 -0.116531,18.482662 -0.258957,18.570684 -0.483965,0.299107 -3.735773,0.492359 -4.987053,0.296375 -0.954607,-0.149517 -1.32031,-0.389677 -1.563699,-1.026903 -0.174726,-0.457459 -0.877936,-1.263744 -1.562691,-1.791744 -0.684752,-0.528 -1.446803,-1.14 -1.693443,-1.36 -0.264275,-0.235728 -1.330506,-0.4 -2.59625,-0.4 -2.625065,0 -4.310886,0.755488 -6.267935,2.808925 l -1.366308,1.4336 -0.01184,3.15249 -0.01184,3.152489 1.554628,1.490579 c 1.968726,1.887623 4.527916,2.793063 6.586889,2.330442 2.721434,-0.611459 5.458499,-2.528477 5.458499,-3.823069 0,-0.580896 0.239379,-0.625456 3.36,-0.625456 h 3.36 v 3.84792 c 0,3.836048 -0.0026,3.848883 -0.820832,4.16 -0.939008,0.357011 -32.470481,0.37959 -33.739167,0.02416 -0.773203,-0.216614 -0.796889,-0.303981 -0.707127,-2.608102 0.0912,-2.340954 0.118385,-2.409965 1.506487,-3.823978 0.777487,-0.792 2.013155,-2.123046 2.745929,-2.957881 0.732774,-0.834839 1.818858,-1.818583 2.413514,-2.1861 0.594659,-0.36752 1.083059,-0.836473 1.085337,-1.042118 0.0034,-0.303584 1.888416,-2.213862 4.732413,-4.795738 0.229107,-0.20799 1.063376,-1.126291 1.85393,-2.040671 0.790556,-0.914381 1.935107,-1.970125 2.543446,-2.3461 0.608339,-0.375974 1.105619,-0.851846 1.105065,-1.057491 -6.4e-4,-0.205645 1.346967,-1.669901 2.994484,-3.253901 3.85151,-3.70302 4.024921,-4.053113 3.724876,-7.519999 -0.260105,-3.005414 0.03323,-3.807407 1.968967,-5.383342 4.361654,-3.550926 2.819718,-11.00827 -2.574355,-12.450485 -2.904797,-0.776657 -4.509591,-0.448434 -6.976858,1.42695 -1.959001,1.489047 -2.781024,4.502293 -2.124182,7.786503 0.213257,1.066298 3.430611,4.708873 4.007552,4.537211 0.153724,-0.04574 0.252204,1.17826 0.218841,2.72 L 47.577663,31.2 44.668831,34.195068 c -1.599859,1.647287 -3.177283,3.231287 -3.505388,3.52 -0.328109,0.288711 -1.192109,1.157274 -1.92,1.930141 -0.727895,0.772864 -1.872746,1.924864 -2.544119,2.56 -0.671369,0.635133 -2.111369,2.074515 -3.2,3.198624 -1.088627,1.124105 -2.252965,2.276105 -2.587416,2.56 -0.827304,0.70224 -1.428125,1.301558 -2.786706,2.779721 -0.635139,0.691047 -1.956137,2.001354 -2.935552,2.911799 -0.979414,0.910445 -1.940412,1.95368 -2.13555,2.318301 -0.195138,0.364617 -0.358531,2.029814 -0.363096,3.700435 -0.006,2.19118 -0.13516,3.164352 -0.463617,3.492809 -0.334299,0.334298 -1.396763,0.464253 -3.997336,0.488931 l -3.542017,0.03361 0.151329,-1.76472 c 0.08933,-1.041702 0.02289,-1.764723 -0.162163,-1.764723 -0.17242,0 -0.08932,-0.320042 0.184654,-0.711203 0.624805,-0.892032 0.62956,-1.208797 0.01815,-1.208797 -0.794036,0 -0.549088,-0.465261 0.765572,-1.454153 2.477368,-1.863485 3.724419,-4.734077 3.330217,-7.665847 -0.118323,-0.88 -0.184713,-1.718704 -0.147533,-1.863785 0.03718,-0.145082 -0.0696,-0.178992 -0.237289,-0.07535 -0.167689,0.103638 -0.388085,-0.06566 -0.489769,-0.376214 C 17.999518,46.49409 17.313048,45.592 16.575712,44.8 l -1.340611,-1.44 -3.19157,0.0019 c -2.3430337,0.0016 -3.2286699,0.11336 -3.3311092,0.420679 -0.076746,0.230237 -0.4796259,0.547913 -0.8952896,0.705949 -0.920263,0.349884 -2.5875654,2.583449 -2.9744627,3.984678 -0.3636352,1.316979 0.046561,3.899769 0.8782807,5.530077 0.6100467,1.195788 1.7431842,2.344192 3.098574,3.140316 0.5043065,0.296218 0.5742486,0.715034 0.5056646,3.027943 -0.043776,1.476294 -0.2334832,2.8696 -0.4215712,3.096233 -0.3857366,0.464784 -6.8473282,0.590355 -7.5462385,0.14665 z M 20.48,61.759999 c 0,-0.176 -0.144,-0.32 -0.32,-0.32 -0.176,0 -0.32,0.144 -0.32,0.32 0,0.176 0.144,0.32 0.32,0.32 0.176,0 0.32,-0.144 0.32,-0.32 z m -17.44,-0.64 c 0.1087739,-0.176 0.045272,-0.32 -0.1411146,-0.32 -0.186387,0 -0.3388854,0.144 -0.3388854,0.32 0,0.176 0.063502,0.32 0.1411145,0.32 0.077613,0 0.2301115,-0.144 0.3388855,-0.32 z m 14.56,-1.28 c 0,-0.176 -0.0635,-0.32 -0.141115,-0.32 -0.07761,0 -0.230111,0.144 -0.338885,0.32 -0.108774,0.176 -0.04527,0.32 0.141114,0.32 0.186387,0 0.338886,-0.144 0.338886,-0.32 z m 13.44,-13.76 c 0,-0.176 -0.0635,-0.32 -0.141115,-0.32 -0.07761,0 -0.230111,0.144 -0.338885,0.32 -0.108775,0.176 -0.04527,0.32 0.141114,0.32 0.186387,0 0.338886,-0.144 0.338886,-0.32 z m 15.839999,-0.96 c 0.108775,-0.176 0.04527,-0.32 -0.141113,-0.32 -0.186388,0 -0.338887,0.144 -0.338887,0.32 0,0.176 0.0635,0.32 0.141114,0.32 0.07761,0 0.230112,-0.144 0.338886,-0.32 z m -35.039999,-3.2 c 0,-0.176 -0.144,-0.32 -0.32,-0.32 -0.176,0 -0.32,0.144 -0.32,0.32 0,0.176 0.144,0.32 0.32,0.32 0.176,0 0.32,-0.144 0.32,-0.32 z m 24.319999,-0.96 c 0,-0.176 -0.0635,-0.32 -0.141113,-0.32 -0.07761,0 -0.230112,0.144 -0.338887,0.32 -0.108774,0.176 -0.04527,0.32 0.141114,0.32 0.186387,0 0.338886,-0.144 0.338886,-0.32 z m 5.12,-5.12 c 0,-0.176 -0.144,-0.32 -0.32,-0.32 -0.176,0 -0.32,0.144 -0.32,0.32 0,0.176 0.144,0.32 0.32,0.32 0.176,0 0.32,-0.144 0.32,-0.32 z m 4.8,-4.978885 c 0,-0.274387 -0.144,-0.409889 -0.32,-0.301114 -0.176,0.108774 -0.32,0.333272 -0.32,0.498885 0,0.165613 0.144,0.301115 0.32,0.301115 0.176,0 0.32,-0.224499 0.32,-0.498886 z m 1.28,-3.021114 c 0,-0.176 -0.152499,-0.32 -0.338886,-0.32 -0.186387,0 -0.249888,0.144 -0.141114,0.32 0.108775,0.176 0.261274,0.32 0.338887,0.32 0.07761,0 0.141113,-0.144 0.141113,-0.32 z M 24.32,25.92 c 0,-0.176 -0.144,-0.32 -0.32,-0.32 -0.176,0 -0.32,0.144 -0.32,0.32 0,0.176 0.144,0.32 0.32,0.32 0.176,0 0.32,-0.144 0.32,-0.32 z m -1.28,-1.28 c 0,-0.176 -0.224499,-0.32 -0.498886,-0.32 -0.274387,0 -0.409888,0.144 -0.301114,0.32 0.108774,0.176 0.333272,0.32 0.498885,0.32 0.165613,0 0.301115,-0.144 0.301115,-0.32 z m 36.159999,-8 c 0,-0.352 -0.144,-0.64 -0.32,-0.64 -0.176,0 -0.32,0.288 -0.32,0.64 0,0.352 0.144,0.64 0.32,0.64 0.176,0 0.32,-0.288 0.32,-0.64 z M 3.2,13.76 c 0,-0.176 -0.216,-0.32 -0.48,-0.32 -0.264,0 -0.48,0.144 -0.48,0.32 0,0.176 0.216,0.32 0.48,0.32 0.264,0 0.48,-0.144 0.48,-0.32 z M 28.48,10.24 C 28.868146,9.9891602 28.82222,9.9288622 28.24,9.9249 27.844,9.92221 27.52,10.064 27.52,10.24 c 0,0.400935 0.339597,0.400935 0.96,0 z m 3.999999,0 C 32.371225,10.064 32.038726,9.9301208 31.741114,9.942491 31.299995,9.9608261 31.318269,10.015805 31.84,10.24 c 0.856291,0.367961 0.867411,0.367961 0.639999,0 z M 3.2,5.7599999 c 0,-0.176 -0.144,-0.32 -0.32,-0.32 -0.176,0 -0.32,0.144 -0.32,0.32 0,0.176 0.144,0.32 0.32,0.32 0.176,0 0.32,-0.144 0.32,-0.32 z m 0,-1.6 c 0,-0.176 -0.144,-0.32 -0.32,-0.32 -0.176,0 -0.32,0.144 -0.32,0.32 0,0.176 0.144,0.32 0.32,0.32 0.176,0 0.32,-0.144 0.32,-0.32 z m 0,-1.4666666 C 3.2,2.1282367 2.5111171,2.2266486 2.3133333,2.82 2.2436666,3.029 2.4146666,3.2 2.6933333,3.2 2.972,3.2 3.2,2.972 3.2,2.6933333 Z m 48.233334,-0.00667 C 51.326998,2.5803334 51.050998,2.568965 50.819999,2.6614037 50.564726,2.7635561 50.64055,2.8393822 51.013334,2.854737 c 0.337331,0.013895 0.526332,-0.061737 0.42,-0.1680703 z"
         style="fill:#e6e6e6;stroke-width:0.32" />
      <path
         id="path42"
         d="m 1.92,63.039999 c 0,-0.176 0.144,-0.32 0.32,-0.32 0.176,0 0.32,0.144 0.32,0.32 0,0.176 -0.144,0.32 -0.32,0.32 -0.176,0 -0.32,-0.144 -0.32,-0.32 z m 13.946543,-0.277053 c -0.137846,-0.22304 -0.16421,-0.491945 -0.05859,-0.597571 0.286388,-0.286387 0.598646,0.134816 0.443964,0.598864 -0.108392,0.325174 -0.183765,0.324922 -0.385377,-0.0013 z m 4.802705,-0.242118 c -0.109551,-0.285485 0.06043,-0.440829 0.482359,-0.440829 0.492228,0 0.604798,-0.14721 0.460421,-0.602106 -0.120606,-0.379993 -0.01052,-0.671398 0.298435,-0.789955 0.365699,-0.140333 0.488905,0.03222 0.48704,0.682103 -0.0029,1.014057 -1.418912,1.956924 -1.728255,1.150787 z M 28.64,62.399999 c 0.108774,-0.176 0.261272,-0.32 0.338885,-0.32 0.07761,0 0.141115,0.144 0.141115,0.32 0,0.176 -0.152499,0.32 -0.338886,0.32 -0.186387,0 -0.249889,-0.144 -0.141114,-0.32 z m -27.04,-0.64 c -0.3881469,-0.250838 -0.3422203,-0.311136 0.24,-0.315101 0.396,-0.0027 0.72,0.139101 0.72,0.315101 0,0.400934 -0.3395971,0.400934 -0.96,0 z m 61.119999,-0.32 c 0,-0.352 0.128595,-0.64 0.285763,-0.64 0.359693,0 0.695213,0.832358 0.438855,1.088714 -0.385204,0.385206 -0.724618,0.175027 -0.724618,-0.448714 z M 15.68,60.761663 c 0,-1.000586 0.01271,-1.009357 0.64,-0.441664 0.352,0.318557 0.64,0.623808 0.64,0.678336 0,0.05453 -0.288,0.25328 -0.64,0.441664 -0.577834,0.309248 -0.64,0.243357 -0.64,-0.678336 z m 3.52,0.243392 c 0,-0.25999 -0.0484,-0.66449 -0.107554,-0.898883 -0.05915,-0.234397 -0.04685,-0.317277 0.02733,-0.184179 0.07419,0.133097 0.266586,0.160598 0.427554,0.06111 0.160968,-0.09948 0.292669,0.107123 0.292669,0.459123 0,0.352 -0.144,0.728996 -0.32,0.83777 -0.176,0.108774 -0.32,-0.01494 -0.32,-0.274944 z m 40.959999,-0.490819 c 0,-0.157171 0.208666,-0.365837 0.463702,-0.463703 0.309927,-0.118931 0.404695,-0.02416 0.285764,0.285764 -0.194228,0.506153 -0.749466,0.637977 -0.749466,0.177939 z M 6.4613333,59.815999 c 0.063067,-0.1892 0.2190666,-0.3332 0.3466666,-0.32 0.1276,0.01318 0.448,0.024 0.712,0.024 0.264,0 0.48,0.144 0.48,0.32 0,0.176 -0.372,0.32 -0.8266666,0.32 -0.4546668,0 -0.7750668,-0.1548 -0.712,-0.344 z M 32.32,59.839999 c 0,-0.176 0.152499,-0.32 0.338886,-0.32 0.186387,0 0.249888,0.144 0.141113,0.32 -0.108774,0.176 -0.261273,0.32 -0.338886,0.32 -0.07761,0 -0.141113,-0.144 -0.141113,-0.32 z m 8.959999,-0.01005 c 0,-0.17047 0.216,-0.309952 0.48,-0.309952 0.264,0 0.48,0.0566 0.48,0.125763 0,0.06917 -0.216,0.20865 -0.48,0.309959 -0.264,0.101305 -0.48,0.04471 -0.48,-0.125764 z M 2.9918126,57.279999 c 0,-1.496 0.055122,-2.108 0.122493,-1.36 0.067371,0.748 0.067371,1.972 0,2.72 -0.067371,0.748 -0.122493,0.136 -0.122493,-1.36 z m 26.0019134,2.052499 c -0.107111,-0.279126 -0.05978,-0.747126 0.105173,-1.04 0.231976,-0.411868 0.293552,-0.296899 0.271813,0.507501 -0.03163,1.170326 -0.09687,1.262477 -0.376986,0.532499 z m 26.052286,0.191216 c -0.250502,-0.154816 -0.57033,-0.210489 -0.710733,-0.123715 -0.140403,0.08677 -0.25528,0.02067 -0.25528,-0.146877 0,-0.540502 0.901251,-0.669488 1.302205,-0.186368 0.476982,0.57473 0.282371,0.839255 -0.336192,0.45696 z M 16.766896,58.749122 c -0.288813,-0.752633 0.141475,-1.19927 0.810449,-0.841248 0.318178,0.170285 0.692526,0.206676 0.831884,0.08087 0.139359,-0.125808 0.150272,-0.04952 0.02425,0.169536 -0.12602,0.219052 -0.511243,0.549263 -0.856052,0.733801 -0.48321,0.258605 -0.669016,0.225834 -0.810534,-0.142957 z m 4.029231,0.290877 c -0.187842,-0.888294 -0.290828,-2.4 -0.163502,-2.4 0.385035,0 0.680403,1.209101 0.469033,1.92 -0.130825,0.44 -0.268314,0.656 -0.305531,0.48 z m 23.222711,-0.650176 c -0.597783,-0.452141 -0.590039,-0.469824 0.205763,-0.469824 0.45481,0 0.909811,0.216 1.01112,0.48 0.233584,0.60871 -0.405709,0.603366 -1.216883,-0.01018 z m -9.925171,-0.127712 c -0.101261,-0.16384 -0.03776,-0.388339 0.141113,-0.498886 0.178871,-0.110547 0.325219,0.02349 0.325219,0.297888 0,0.562089 -0.192019,0.644851 -0.466332,0.200998 z M 6.9999999,58.079999 c -0.022,-0.088 -0.058,-0.309251 -0.08,-0.49167 -0.022,-0.182423 -0.2353738,-0.452423 -0.4741642,-0.6 -0.3024723,-0.186941 -0.3267382,-0.334723 -0.08,-0.487216 0.1947904,-0.120387 0.3541642,-0.05789 0.3541642,0.138886 0,0.196775 0.144,0.268775 0.32,0.16 0.176,-0.108774 0.32,-0.03677 0.32,0.16 0,0.196775 0.1340499,0.274925 0.2978886,0.173667 0.1638387,-0.10126 0.4020877,-0.01552 0.5294426,0.190557 0.1446153,0.233991 0.092844,0.288935 -0.1378887,0.146333 -0.2189132,-0.135296 -0.3694425,-0.02506 -0.3694425,0.270557 0,0.446201 -0.5808083,0.735654 -0.68,0.338886 z M 56.864745,57.813334 c -0.09005,-0.234669 0.03854,-0.426669 0.285763,-0.426669 0.247219,0 0.449491,0.192 0.449491,0.426669 0,0.234665 -0.128595,0.426665 -0.285763,0.426665 -0.157171,0 -0.35944,-0.192 -0.449491,-0.426665 z M 29.846229,57.160636 c -0.101813,-0.164736 -0.02882,-0.202925 0.162216,-0.08486 0.191033,0.118064 0.437302,0.06909 0.547265,-0.108835 0.109963,-0.177923 0.479914,-0.473341 0.822112,-0.65648 C 31.918483,56.021106 32,56.084438 32,56.793823 c 0,0.714451 -0.122857,0.806979 -0.984328,0.741338 -0.54138,-0.04125 -1.06763,-0.209786 -1.169443,-0.374525 z m 12.614369,0.0019 c -0.127175,-0.331414 -0.08557,-0.476842 0.103065,-0.360259 0.501453,0.309913 0.36784,-0.214963 -0.220102,-0.864631 -0.401328,-0.443462 -0.444621,-0.684576 -0.171891,-0.957305 0.513267,-0.513267 1.167568,1.246803 0.783485,2.107571 -0.257588,0.577274 -0.299261,0.583562 -0.494557,0.07462 z m 1.084665,-0.06919 c 0.01536,-0.372784 0.09118,-0.448608 0.193332,-0.193335 0.09244,0.230999 0.08107,0.506999 -0.02525,0.613335 -0.106336,0.106332 -0.181965,-0.08267 -0.168071,-0.42 z M 16.96,56.639999 c 0,-0.176 0.152498,-0.32 0.338885,-0.32 0.186387,0 0.249889,0.144 0.141115,0.32 -0.108774,0.176 -0.261273,0.32 -0.338886,0.32 -0.07761,0 -0.141114,-0.144 -0.141114,-0.32 z m 0.985263,-1.213379 c -0.0139,-0.40336 0.279363,-1.05136 0.651683,-1.44 l 0.676947,-0.706621 -0.473041,0.96 c -0.260172,0.528 -0.55343,1.176 -0.651683,1.44 -0.116439,0.312864 -0.18744,0.224637 -0.203906,-0.253379 z m 4.20807,0.193379 c 0.06967,-0.209001 0.297765,-0.437033 0.506884,-0.506739 0.23384,-0.07795 0.305356,0.06835 0.185764,0.38 -0.223207,0.581667 -0.884633,0.702694 -0.692648,0.126739 z m 10.027809,-0.990022 c 0.516371,-0.665514 1.247904,-1.415034 1.625625,-1.665603 0.668944,-0.443754 0.677504,-0.431034 0.329847,0.490022 -0.217223,0.575485 -0.587363,0.945603 -0.945655,0.945603 -0.380419,0 -0.507283,0.141533 -0.35854,0.4 0.126604,0.22 0.110787,0.291687 -0.03515,0.159303 -0.145936,-0.132384 -0.55551,0.01162 -0.910164,0.32 -0.354655,0.308384 -0.222341,0.01619 0.294033,-0.649325 z M 3.8399999,54.738886 c 0,-0.165613 0.144,-0.390112 0.32,-0.498887 0.176,-0.108774 0.32,0.02672 0.32,0.301114 0,0.274387 -0.144,0.498886 -0.32,0.498886 -0.176,0 -0.32,-0.135501 -0.32,-0.301113 z M 2.9953588,51.519999 c 0,-1.672 0.053934,-2.356 0.1198538,-1.52 0.06592,0.836 0.06592,2.204 0,3.04 -0.06592,0.836 -0.1198538,0.152 -0.1198538,-1.52 z m 37.5083752,1.505098 c -0.143328,-0.492195 -0.171303,-0.984195 -0.06217,-1.093335 0.358189,-0.358188 0.568839,0.152941 0.444676,1.078983 l -0.121911,0.909254 z M 25.12,52.479999 c 0.108774,-0.176 0.261272,-0.32 0.338885,-0.32 0.07761,0 0.141115,0.144 0.141115,0.32 0,0.176 -0.152499,0.32 -0.338886,0.32 -0.186387,0 -0.249888,-0.144 -0.141114,-0.32 z m 10.823766,-0.755795 c 0.66216,-0.997264 1.176233,-1.011114 1.176233,-0.03168 0,0.773018 -0.05805,0.818762 -0.541427,0.426666 -0.297785,-0.241549 -0.448118,-0.283181 -0.334077,-0.09252 0.114045,0.190669 -0.0039,0.346669 -0.262192,0.346669 -0.400057,0 -0.40576,-0.09606 -0.03854,-0.649129 z M 3.8399999,50.559999 c 0,-0.352 0.1133562,-0.64 0.2519028,-0.64 0.1385462,0 0.2735968,0.288 0.3001123,0.64 0.026515,0.352 -0.086841,0.64 -0.2519027,0.64 -0.1650618,0 -0.3001124,-0.288 -0.3001124,-0.64 z m 23.0400001,0.16 c 0.2191,-0.264 0.520213,-0.48 0.669139,-0.48 0.148926,0 0.187887,0.216 0.08658,0.48 -0.101306,0.264 -0.402419,0.48 -0.669139,0.48 -0.394781,0 -0.410879,-0.08924 -0.08658,-0.48 z m 10.559011,-1.36 c 0.418739,-0.572 0.843737,-1.04 0.944438,-1.04 0.100698,0 0.579347,-0.36743 1.063661,-0.816512 0.484313,-0.449081 1.007091,-0.738317 1.161728,-0.642745 0.154637,0.09557 0.516227,-0.185002 0.803536,-0.623492 0.287309,-0.438486 0.663059,-0.797251 0.835001,-0.797251 0.171943,0 0.01936,0.293251 -0.339046,0.651671 -0.358422,0.358422 -0.570576,0.782892 -0.471453,0.943273 0.09912,0.160381 -0.104957,0.236682 -0.453504,0.169559 -0.424489,-0.08175 -0.702992,0.09621 -0.843529,0.539008 -0.165629,0.521849 -0.268797,0.567916 -0.489927,0.218771 -0.273072,-0.431159 -0.311363,-0.391667 -0.424461,0.437718 -0.02998,0.22 -0.238704,0.360432 -0.463785,0.312071 -0.225085,-0.04836 -0.328125,0.04332 -0.228979,0.203744 0.09915,0.160416 -0.03415,0.469616 -0.296215,0.68711 -0.262061,0.217491 -0.476477,0.288176 -0.476477,0.157075 0,-0.131101 -0.243526,-0.04073 -0.541168,0.200819 -0.306646,0.248858 -0.211232,-0.01152 0.22018,-0.600819 z m 4.365267,0.4 c 0.101309,-0.264 0.225382,-0.48 0.275721,-0.48 0.05034,0 0.174413,0.216 0.275722,0.48 0.111072,0.289456 0.0016,0.48 -0.275722,0.48 -0.277344,0 -0.386793,-0.190544 -0.275721,-0.48 z M 3.8643449,48.578886 c -0.013389,-0.649613 0.109705,-1.263962 0.2735437,-1.36522 0.5221337,-0.322697 0.5906211,0.271757 0.1643283,1.426333 l -0.413527,1.12 z m 38.7935581,0.59494 c 0.122154,-0.322393 0.222096,-0.747193 0.222096,-0.944 0,-0.260483 0.09887,-0.25896 0.363428,0.0056 0.271238,0.271239 0.214902,0.510704 -0.222093,0.944 -0.565575,0.560791 -0.577955,0.560602 -0.363431,-0.0056 z m 14.390954,-0.933827 c -0.679063,-0.877606 -0.710352,-1.478832 -0.07447,-1.430931 0.401184,0.03021 0.508595,0.155946 0.306169,0.358371 -0.202429,0.202429 -0.127561,0.515427 0.213405,0.892192 0.288874,0.319203 0.376541,0.580368 0.194813,0.580368 -0.181728,0 -0.469693,-0.18 -0.63992,-0.4 z m -13.208858,-0.20223 c 0,-0.176 0.144,-0.408995 0.32,-0.51777 0.176,-0.108774 0.32,-0.05377 0.32,0.122231 0,0.176 -0.144,0.408995 -0.32,0.517769 -0.176,0.108775 -0.32,0.05377 -0.32,-0.12223 z M 30.08,47.717769 c 0,-0.176 0.144,-0.408995 0.32,-0.51777 0.176,-0.108774 0.32,-0.05377 0.32,0.122231 0,0.176 -0.144,0.408995 -0.32,0.517769 -0.176,0.108775 -0.32,0.05377 -0.32,-0.12223 z m 14.719999,-0.338883 c 0,-0.165613 0.142352,-0.389095 0.316336,-0.496621 0.181395,-0.112109 0.23504,0.01635 0.125764,0.301113 -0.212733,0.554375 -0.4421,0.655805 -0.4421,0.195508 z M 2.8010521,39.600294 C 2.8456308,35.332131 2.9276751,31.192 2.9833727,30.4 c 0.055698,-0.792 0.1272241,2.699999 0.1589478,7.759999 0.031724,5.06 -0.05032,9.200131 -0.1823205,9.200295 -0.132,1.6e-4 -0.2035266,-3.49184 -0.1589479,-7.76 z m 29.1294459,6.751203 c -0.07806,-0.234183 0.0565,-0.624211 0.299025,-0.866736 0.600873,-0.600874 0.704038,-0.360067 0.233008,0.543878 -0.258912,0.496871 -0.437834,0.60545 -0.532033,0.322858 z m 14.176167,-0.04205 c 0.07333,-0.0498 0.421334,-0.301802 0.773334,-0.56 0.592003,-0.434243 0.607063,-0.427453 0.200819,0.09055 -0.241552,0.308 -0.589552,0.56 -0.773334,0.56 -0.183782,0 -0.27415,-0.04075 -0.200819,-0.09055 z M 18.161994,45.540054 c 0.221096,-0.08509 0.320598,-0.28642 0.221114,-0.447386 -0.09948,-0.160966 0.01962,-0.292669 0.264673,-0.292669 0.721457,0 0.509171,0.828839 -0.221115,0.863306 -0.366666,0.01731 -0.485769,-0.03816 -0.264672,-0.123251 z m 36.253285,-0.08384 c -0.255597,-0.161693 -0.615597,-0.2084 -0.8,-0.103796 -0.184403,0.104605 -0.224345,0.06817 -0.08876,-0.08097 0.399916,-0.439885 1.406816,-0.392678 1.406816,0.06596 0,0.232426 -0.012,0.420387 -0.02666,0.417693 -0.01466,-0.0026 -0.235789,-0.137194 -0.491386,-0.298886 z M 5.7599999,45.157769 c 0,-0.176 0.144,-0.408995 0.32,-0.51777 0.176,-0.108774 0.32,-0.05377 0.32,0.122231 0,0.176 -0.144,0.408995 -0.32,0.517769 -0.176,0.108775 -0.32,0.05377 -0.32,-0.12223 z M 44.861337,44.820697 c 0.418214,-0.669667 0.898662,-0.585098 0.898662,0.158189 0,0.253613 -0.289219,0.461113 -0.64271,0.461113 -0.55545,0 -0.590202,-0.08409 -0.255952,-0.619302 z m 2.818662,-0.01384 c 0,-0.561113 0.09204,-0.591203 0.809082,-0.264499 0.586925,0.267424 0.696755,0.439923 0.4,0.62824 -0.703834,0.446643 -1.209082,0.294643 -1.209082,-0.363741 z M 17.097142,44.516355 c 0,-0.360388 0.165798,-0.54002 0.411429,-0.445764 0.226286,0.08684 0.411429,0.358474 0.411429,0.603645 0,0.245168 -0.185143,0.445763 -0.411429,0.445763 -0.226286,0 -0.411429,-0.271638 -0.411429,-0.603644 z m 25.236192,0.203644 c 0.08066,-0.22 0.326333,-0.358112 0.545923,-0.306915 0.239002,0.05573 0.325082,-0.100214 0.214454,-0.388502 -0.114566,-0.298557 0.1485,-0.718919 0.692173,-1.106048 0.839837,-0.598016 0.876973,-0.599472 0.876973,-0.03435 0,0.32456 -0.09874,0.564393 -0.21943,0.532963 -0.120685,-0.03142 -0.233828,0.05086 -0.251428,0.182857 -0.05222,0.391684 -1.283475,1.52 -1.658665,1.52 -0.190669,0 -0.280669,-0.18 -0.2,-0.4 z M 9.1775586,42.522825 c -0.1845632,-0.705773 0.044637,-0.747728 0.8298964,-0.15192 0.539008,0.40897 0.536381,0.438678 -0.0524,0.592646 -0.4229501,0.110605 -0.6699312,-0.02941 -0.7774964,-0.440726 z M 14.08,42.879999 c -0.504117,-0.325785 -0.403135,-0.369001 1.066718,-0.456505 0.817396,-0.04866 0.850776,-0.01309 0.338838,0.361261 -0.67391,0.492777 -0.779362,0.499923 -1.405556,0.09524 z m 35.373666,0.02211 c -0.10126,-0.16384 -0.03776,-0.388339 0.141114,-0.498886 0.17887,-0.110547 0.325219,0.02349 0.325219,0.297888 0,0.56209 -0.192019,0.644851 -0.466333,0.200998 z m -14.253667,-0.34211 c 0,-0.176 0.1525,-0.32 0.338887,-0.32 0.186387,0 0.249888,0.144 0.141113,0.32 -0.108774,0.176 -0.261273,0.32 -0.338886,0.32 -0.07761,0 -0.141114,-0.144 -0.141114,-0.32 z m 10.990851,-1.08646 c 0.626733,-0.943914 1.169149,-1.001536 1.169149,-0.124205 0,0.599293 -0.170627,0.762665 -0.796537,0.762665 -0.724212,0 -0.758045,-0.05797 -0.372612,-0.63846 z M 18.56,41.599999 c 0,-0.176 0.144,-0.32 0.32,-0.32 0.176,0 0.32,0.144 0.32,0.32 0,0.176 -0.144,0.32 -0.32,0.32 -0.176,0 -0.32,-0.144 -0.32,-0.32 z m 18.490655,-0.359145 c -0.113036,-0.294567 0.0849,-0.655965 0.501274,-0.915229 0.587779,-0.365997 0.636029,-0.36265 0.331037,0.02298 -0.196368,0.248278 -0.421939,0.660131 -0.501274,0.915232 -0.122873,0.39511 -0.17191,0.391709 -0.331037,-0.02298 z M 13.623397,39.713465 C 13.091728,39.505187 13.077486,39.444787 13.52,39.274979 c 0.282264,-0.108317 0.685368,0.0105 0.895786,0.264041 0.414828,0.499837 0.173726,0.552915 -0.792389,0.174445 z M 47.316258,39.58495 c 0.239943,-0.295847 0.562292,-0.46001 0.716333,-0.364807 0.154042,0.0952 0.202883,-0.02806 0.108531,-0.273942 -0.102972,-0.268346 0.314202,-0.813126 1.043668,-1.362896 0.668364,-0.503722 1.022812,-0.676342 0.78766,-0.3836 -0.235152,0.292742 -0.320902,0.704816 -0.190556,0.915718 0.149923,0.242586 0.101264,0.299578 -0.132452,0.155133 -0.211577,-0.130761 -0.369443,-0.03826 -0.369443,0.216483 0,0.385114 -0.345926,0.63114 -2.08,1.479296 -0.176,0.08609 -0.123683,-0.08554 0.116259,-0.381385 z M 18.8,39.46807 c 0.22,-0.08877 0.58,-0.08877 0.8,0 0.22,0.08877 0.04,0.161405 -0.4,0.161405 -0.44,0 -0.62,-0.07263 -0.4,-0.161405 z m 2.365836,-0.07297 c -0.302658,-0.191776 -0.32689,-0.341401 -0.08,-0.493987 0.19479,-0.120387 0.354164,-0.07694 0.354164,0.09654 0,0.173481 0.252,0.381276 0.56,0.461763 0.396792,0.103693 0.420108,0.155734 0.08,0.178566 -0.264,0.01773 -0.675374,-0.09157 -0.914164,-0.24288 z M 23.68,37.938886 c 0,-0.274387 0.144,-0.498887 0.32,-0.498887 0.176,0 0.32,0.135501 0.32,0.301114 0,0.165613 -0.144,0.390112 -0.32,0.498886 -0.176,0.108775 -0.32,-0.02672 -0.32,-0.301113 z m 30.893666,-0.156775 c -0.10126,-0.16384 -0.03776,-0.388339 0.141114,-0.498886 0.17887,-0.110547 0.325219,0.02349 0.325219,0.297888 0,0.56209 -0.192019,0.644851 -0.466333,0.200998 z M 40.319999,37.439999 c 0,-0.176 0.144,-0.32 0.32,-0.32 0.176,0 0.32,0.144 0.32,0.32 0,0.176 -0.144,0.32 -0.32,0.32 -0.176,0 -0.32,-0.144 -0.32,-0.32 z m 10.43313,-0.586393 c -0.07718,-0.12488 0.202925,-0.532797 0.622451,-0.90648 0.749997,-0.668039 0.766131,-0.668861 0.962816,-0.04916 0.110022,0.346644 0.134374,0.695927 0.05412,0.776183 -0.273232,0.273232 -1.498531,0.40736 -1.639385,0.179456 z M 8.9885429,35.253334 c -0.2254688,-0.421293 -0.2028698,-0.586669 0.08017,-0.586669 0.2167792,0 0.3941443,0.264 0.3941443,0.586669 0,0.322665 -0.036076,0.586665 -0.08017,0.586665 -0.044093,0 -0.2214582,-0.264 -0.3941443,-0.586665 z m 33.5714561,-0.05334 c 0,-0.176 0.1525,-0.32 0.338887,-0.32 0.186387,0 0.249888,0.144 0.141113,0.32 -0.108774,0.176 -0.261273,0.32 -0.338886,0.32 -0.07761,0 -0.141114,-0.144 -0.141114,-0.32 z M 23.68,34.541113 c 0,-0.186387 0.144,-0.249888 0.32,-0.141114 0.176,0.108775 0.32,0.261274 0.32,0.338887 0,0.07761 -0.144,0.141113 -0.32,0.141113 -0.176,0 -0.32,-0.152499 -0.32,-0.338886 z m 29.226665,-0.41721 c 0,-0.264355 0.229619,-0.376048 0.583069,-0.283619 0.320688,0.08386 0.504188,0.280106 0.407782,0.436096 -0.273795,0.443008 -0.990851,0.332666 -0.990851,-0.152477 z m -8.106666,-1.643904 c 0,-0.868271 0.02896,-0.891601 0.758768,-0.611542 0.398963,0.153095 0.41945,0.303203 0.109197,0.8 -0.524912,0.840515 -0.867965,0.766029 -0.867965,-0.188458 z m 9.833335,-0.673333 c -0.128336,-0.128333 -0.233335,-0.454133 -0.233335,-0.724 0,-0.36019 0.09467,-0.396 0.356,-0.134666 0.195799,0.1958 0.3008,0.5216 0.233335,0.724 -0.06747,0.2024 -0.227668,0.263 -0.356,0.134666 z M 46.631183,31.05493 C 46.451817,30.369034 46.627382,30.08 47.223375,30.08 c 0.240186,0 0.33016,0.254482 0.228039,0.644986 -0.236356,0.903824 -0.628868,1.061716 -0.820231,0.329944 z M 23.564633,30.497967 C 23.188179,30.121512 23.354575,29.546666 23.84,29.546666 c 0.264,0 0.48,0.183502 0.48,0.407782 0,0.490632 -0.470039,0.828846 -0.755367,0.543519 z M 8.9852629,29.661114 c -0.015395,-0.3528 -0.1695498,-0.489711 -0.3947056,-0.350557 -0.2381485,0.147183 -0.2821744,0.08712 -0.1238826,-0.168997 0.3196791,-0.517252 0.9517959,0.07581 0.7145882,0.67044 -0.1124192,0.28181 -0.1793658,0.230273 -0.196,-0.150886 z M 44.799999,29.76 c 0,-0.176 0.144,-0.32 0.32,-0.32 0.176,0 0.32,0.144 0.32,0.32 0,0.176 -0.144,0.32 -0.32,0.32 -0.176,0 -0.32,-0.144 -0.32,-0.32 z M 3.7759999,29.056 c 0.2986666,-0.298667 0.4693335,-0.298667 0.768,0 0.2986666,0.298666 0.2133335,0.384 -0.384,0.384 -0.5973334,0 -0.6826665,-0.08533 -0.384,-0.384 z M 29.7,29.221403 c 0.231,-0.09244 0.507,-0.08107 0.613333,0.02526 0.106333,0.106334 -0.08267,0.181965 -0.42,0.16807 C 29.520551,29.399384 29.444725,29.323556 29.7,29.221404 Z m 16.379999,-0.280289 c 0,-0.274387 0.146349,-0.408437 0.325219,-0.297889 0.178871,0.110549 0.242375,0.335047 0.141114,0.498886 -0.274314,0.443854 -0.466333,0.361091 -0.466333,-0.200997 z m 8.16,0.178886 c -0.108774,-0.176 -0.04527,-0.32 0.141114,-0.32 0.186387,0 0.338886,0.144 0.338886,0.32 0,0.176 -0.0635,0.32 -0.141113,0.32 -0.07761,0 -0.230112,-0.144 -0.338887,-0.32 z M 7.2712882,28.574145 C 6.9710684,28.273925 6.3282111,28.021925 5.842717,28.014145 5.183543,28.003582 4.9838118,27.858183 5.0540278,27.44 c 0.079154,-0.471421 -0.1739287,-0.565182 -1.6,-0.592756 -1.4418303,-0.02788 -1.5471723,-0.06787 -0.7075895,-0.26863 1.2105021,-0.289451 3.6865232,0.02329 3.652825,0.461386 -0.013539,0.176 0.2712252,0.366295 0.632807,0.422878 0.3615817,0.05658 0.5708889,0.242891 0.4651267,0.414017 -0.1057619,0.171127 -0.018266,0.520832 0.1944365,0.777122 0.5322304,0.641299 0.2465398,0.587013 -0.4203453,-0.07987 z M 32.32,28.48 c -0.351525,-0.227173 -0.115988,-0.311512 0.879999,-0.3151 0.748,-0.0027 1.36,0.1391 1.36,0.3151 0,0.408324 -1.608163,0.408324 -2.239999,0 z m -7.68,-0.122696 c 0,-0.06748 0.36,-0.191513 0.8,-0.275625 0.44,-0.08411 0.8,-0.0289 0.8,0.122696 0,0.151593 -0.36,0.275625 -0.8,0.275625 -0.44,0 -0.8,-0.05521 -0.8,-0.122696 z m 5.994666,-0.557013 c 0.217067,-0.218693 0.475277,-0.317014 0.573801,-0.21849 0.09852,0.09852 -0.07908,0.277455 -0.394667,0.397625 -0.456063,0.173659 -0.492819,0.136903 -0.179134,-0.179135 z M 45.987279,26.88 c -0.09205,-0.352 -0.04136,-0.64 0.112634,-0.64 0.154,0 0.200765,-0.252 0.10392,-0.56 -0.163197,-0.519028 -0.141527,-0.51794 0.296195,0.01487 0.460125,0.560082 0.390794,1.825127 -0.100029,1.825127 -0.134947,0 -0.320669,-0.288 -0.41272,-0.64 z M 21.92,26.635099 C 21.744,26.505794 21.557687,26.148 21.505972,25.84 c -0.07241,-0.431276 0.129868,-0.56 0.88,-0.56 1.020147,0 1.276894,0.529134 0.590028,1.216 -0.442317,0.442316 -0.612731,0.464764 -1.056,0.139099 z M 24.48,25.6 C 24.368279,25.248 24.142575,24.96 23.978435,24.96 23.814296,24.96 23.68,24.768 23.68,24.533333 c 0,-0.234667 0.202271,-0.426667 0.449491,-0.426667 0.24722,0 0.375813,0.192 0.285763,0.426667 -0.09606,0.250338 0.0566,0.426667 0.369395,0.426667 0.293217,0 0.445144,0.14235 0.337616,0.316334 -0.112109,0.181396 0.01634,0.235043 0.301114,0.125764 C 25.696521,25.297284 25.92,25.355527 25.92,25.531527 25.92,25.796653 25.216246,26.24 24.795392,26.24 24.733647,26.24 24.59172,25.952 24.48,25.6 Z m 9.448969,0.01231 c -0.401894,-0.254161 -0.388128,-0.3297 0.0938,-0.514632 0.31066,-0.119211 0.654624,-0.126957 0.764365,-0.01721 0.109744,0.109743 0.02304,0.199533 -0.192685,0.199533 -0.215721,0 -0.303222,0.144 -0.194448,0.32 0.243552,0.394074 0.137031,0.396859 -0.47103,0.01231 z M 17.92,25.135919 c 0,-0.248229 1.246258,-0.394543 1.583784,-0.185941 0.20835,0.128767 -0.05999,0.243891 -0.604577,0.259375 C 18.360643,25.224666 17.92,25.19162 17.92,25.135919 Z M 12.660444,24.34259 c -0.331753,-0.366583 -0.504641,-0.76506 -0.384197,-0.885505 0.303648,-0.303647 1.266665,0.714178 1.112712,1.176039 -0.0793,0.237911 -0.346833,0.13122 -0.728515,-0.290534 z m 7.981821,0.301075 c -0.112109,-0.181395 0.01634,-0.235042 0.301115,-0.125764 0.554373,0.212733 0.655803,0.442099 0.195505,0.442099 -0.165613,0 -0.389092,-0.142351 -0.49662,-0.316335 z M 43.239654,24.35128 c -0.346496,-0.219476 -0.370595,-0.54238 -0.113072,-1.5151 0.284253,-1.073688 0.331619,-1.120507 0.360345,-0.35618 0.01819,0.484 0.177072,0.88 0.353072,0.88 0.176,0 0.32,0.152498 0.32,0.338885 0,0.186387 -0.16847,0.234765 -0.37438,0.107506 -0.251728,-0.155578 -0.307437,-0.05693 -0.170042,0.301114 0.234438,0.610944 0.219274,0.620779 -0.375923,0.243775 z m 12.760345,-0.341237 c 0,-0.170477 0.252,-0.215515 0.56,-0.100086 0.490397,0.183785 0.505415,0.142764 0.120819,-0.330043 C 56.439266,23.282961 56.387862,23.04 56.566582,23.04 c 0.389593,0 0.748758,0.817992 0.478035,1.088715 -0.305175,0.305175 -1.044618,0.221172 -1.044618,-0.118672 z m 2.296538,-0.223526 c 0.155696,-0.802806 0.903462,-0.913038 0.903462,-0.133184 0,0.393068 -0.206621,0.666667 -0.503462,0.666667 -0.297997,0 -0.461242,-0.217719 -0.4,-0.533483 z m -22.178496,-0.21596 c 0.196022,-0.236194 0.249654,-0.547281 0.119181,-0.691305 -0.130471,-0.144023 -0.05023,-0.153954 0.178317,-0.02207 0.32015,0.184749 0.329523,0.343437 0.04082,0.691305 -0.206096,0.24833 -0.44672,0.451511 -0.53472,0.451511 -0.088,0 3.2e-4,-0.19325 0.196406,-0.429443 z m 4.425802,4.16e-4 c -0.09055,-0.235961 -0.03616,-0.631961 0.120864,-0.88 0.207776,-0.328214 0.286825,-0.211425 0.290393,0.429019 0.0053,0.955594 -0.15159,1.127662 -0.411257,0.450981 z M 10.702768,22.372117 c -0.329767,-0.533574 0.411906,-1.145443 0.85335,-0.704 C 11.925373,22.037373 11.694268,22.72 11.2,22.72 c -0.155226,0 -0.378981,-0.156548 -0.497232,-0.347883 z M 22.770526,22.08 c 0,-0.44 0.07263,-0.62 0.161404,-0.4 0.08877,0.22 0.08877,0.58 0,0.8 -0.08877,0.22 -0.161404,0.04 -0.161404,-0.4 z M 22.08,21.6 c 0,-0.44 0.124031,-0.8 0.275625,-0.8 0.151594,0 0.206806,0.36 0.122695,0.8 -0.08411,0.44 -0.208143,0.8 -0.275625,0.8 C 22.135212,22.4 22.08,22.04 22.08,21.6 Z M 12.697319,20.777954 C 12.029927,20.086079 11.607759,19.52 11.759166,19.52 c 0.362764,0 2.478785,2.188715 2.29434,2.37316 -0.07851,0.07851 -0.688796,-0.423331 -1.356187,-1.115206 z M 37.444899,20.88 c -0.0027,-0.396 0.1391,-0.72 0.3151,-0.72 0.400935,0 0.400935,0.339597 0,0.96 -0.250838,0.388147 -0.311136,0.34222 -0.3151,-0.24 z M 8.684549,20.469354 c -0.8496618,-0.70784 -0.7709891,-0.768042 0.4146189,-0.317275 0.4514576,0.171644 0.8208319,0.459644 0.8208319,0.64 0,0.485003 -0.3873407,0.383821 -1.2354508,-0.322725 z M 3.3768915,20.187331 c -0.103032,-0.16671 -0.050933,-0.387407 0.1157772,-0.49044 0.1667095,-0.103032 0.3874074,-0.05093 0.4904397,0.115777 0.103032,0.16671 0.050933,0.387408 -0.1157773,0.49044 -0.1667094,0.103032 -0.3874073,0.05093 -0.4904396,-0.115777 z M 20.16,19.850043 c 0,-0.416189 0.156026,-0.570084 0.459794,-0.453517 0.252887,0.09704 0.381481,0.380522 0.285764,0.629957 C 20.649402,20.694014 20.16,20.578195 20.16,19.850043 Z M 1.28,19.52 c 0,-0.176 0.144,-0.32 0.32,-0.32 0.176,0 0.32,0.144 0.32,0.32 0,0.176 -0.144,0.32 -0.32,0.32 -0.176,0 -0.32,-0.144 -0.32,-0.32 z m 56.75277,-0.152314 c 0.09968,-0.259772 -0.01251,-1.116157 -0.249353,-1.903077 -0.236829,-0.78692 -0.350983,-1.510379 -0.253674,-1.607687 0.456391,-0.456391 0.710256,-0.06887 0.710256,1.084192 0,0.693613 0.144,1.350112 0.32,1.458886 0.521536,0.322327 0.370778,1.44 -0.194237,1.44 -0.32191,0 -0.446451,-0.176647 -0.332992,-0.472314 z M 21.875249,19.038773 c -0.110126,-0.286986 -0.05639,-0.66563 0.119408,-0.841431 0.212851,-0.21285 0.377372,-0.09886 0.492449,0.341191 0.208859,0.79868 -0.328688,1.238165 -0.611857,0.50024 z M 37.919999,18.88 c -0.108774,-0.176 -0.04527,-0.32 0.141114,-0.32 0.186387,0 0.338886,0.144 0.338886,0.32 0,0.176 -0.0635,0.32 -0.141113,0.32 -0.07761,0 -0.230112,-0.144 -0.338887,-0.32 z M 2.8124034,17.200199 C 2.9673164,14.383372 3.1105304,14.116858 3.1564217,16.56 3.1803897,17.836 3.092,18.880089 2.96,18.880199 c -0.132,1.09e-4 -0.1984185,-0.755891 -0.1475966,-1.68 z M 59.733333,17.706666 C 59.405289,17.378624 59.480514,16.062173 59.839999,15.84 c 0.190438,-0.117697 0.32,0.263343 0.32,0.941114 0,1.169466 -0.05766,1.294555 -0.426666,0.925552 z M 39.201564,17.282534 c -0.10791,-0.174606 -0.04879,-0.570606 0.131386,-0.88 0.281008,-0.482544 0.328973,-0.437402 0.337318,0.317466 0.01018,0.920236 -0.13784,1.097883 -0.468704,0.562534 z M 20.48,16.498885 c 0,-0.429613 0.128911,-0.860786 0.286468,-0.958162 C 21.142997,15.308016 21.470741,16.187545 21.23572,16.8 20.947956,17.549902 20.48,17.363447 20.48,16.498885 Z m 2.265263,-0.04555 c 0.01535,-0.372782 0.09118,-0.448608 0.193333,-0.193333 0.09244,0.231 0.08107,0.507 -0.02526,0.613333 -0.106333,0.106333 -0.181965,-0.08267 -0.16807,-0.42 z m 14.555309,-0.03953 c -0.173657,-0.456064 -0.136902,-0.49282 0.179136,-0.179135 0.218695,0.217067 0.317015,0.475277 0.21849,0.573801 -0.09852,0.09852 -0.277456,-0.07908 -0.397626,-0.394666 z m 5.139427,0.29092 c -0.08677,-0.140403 -0.02547,-0.464403 0.136215,-0.72 0.161693,-0.255597 0.296192,-0.787108 0.298886,-1.181137 0.0039,-0.571599 0.170211,-0.702734 0.822711,-0.648731 0.641884,0.05312 0.721968,0.138401 0.372272,0.396416 -0.52288,0.38579 -1.356199,1.822315 -1.258068,2.168731 0.09021,0.318468 -0.172416,0.307681 -0.372016,-0.01528 z M 40.641971,15.44 l 0.0019,-1.2 0.476329,0.913305 C 41.592175,16.058121 41.522054,16.64 40.941113,16.64 40.7755,16.64 40.640886,16.1 40.641971,15.44 Z M 19.812127,14.32 c -0.225764,-0.572 -0.472512,-1.161983 -0.548329,-1.311074 -0.07582,-0.149091 0.135284,-0.124898 0.469111,0.05376 0.359804,0.192561 0.63756,0.726432 0.682108,1.311073 0.09647,1.266029 -0.08849,1.249536 -0.60289,-0.05376 z m 17.947872,0.266666 c 0,-0.278666 0.228,-0.506666 0.506666,-0.506666 0.565098,0 0.466685,0.688883 -0.126666,0.886666 -0.209001,0.06967 -0.38,-0.101333 -0.38,-0.38 z m 19.098045,-0.06254 c 0.158333,-0.412604 0.09776,-0.483534 -0.243664,-0.285317 -0.24991,0.14509 -0.351446,0.149779 -0.225638,0.01042 0.125808,-0.139358 0.08014,-0.558446 -0.101479,-0.931304 -0.265104,-0.544248 -0.201187,-0.520177 0.324144,0.122074 0.741024,0.905951 0.803053,1.159127 0.352256,1.437735 -0.187897,0.116128 -0.230781,-0.02744 -0.105619,-0.353609 z M 1.28,13.479182 C 1.28,13.105632 1.4155015,12.8 1.5811145,12.8 c 0.5543876,0 0.6569603,0.563233 0.1753621,0.962924 C 1.3599615,14.092002 1.28,14.044385 1.28,13.479182 Z m 60.962265,0.284483 c -0.112109,-0.181395 0.01635,-0.235042 0.301113,-0.125763 0.554375,0.212733 0.655805,0.442098 0.195507,0.442098 -0.165612,0 -0.389094,-0.142351 -0.49662,-0.316335 z M 3.2,12.96 c 0,-0.264 0.1439999,-0.48 0.3199999,-0.48 0.176,0 0.32,0.216 0.32,0.48 0,0.264 -0.144,0.48 -0.32,0.48 C 3.3439999,13.44 3.2,13.224 3.2,12.96 Z m 41.727999,-0.345251 c 0,-0.516499 0.106666,-0.668083 0.32,-0.454749 0.395875,0.395876 0.93409,0.42407 0.694483,0.03638 -0.145913,-0.236097 1.088874,-0.79188 1.296788,-0.583689 0.03697,0.03702 -0.467943,0.451945 -1.122026,0.922057 l -1.189245,0.854749 z M 34.124278,12 c 0.101309,-0.264 0.240787,-0.48 0.309958,-0.48 0.06917,0 0.125763,0.216 0.125763,0.48 0,0.264 -0.139481,0.48 -0.309958,0.48 -0.170474,0 -0.227069,-0.216 -0.125763,-0.48 z m -1.452304,-0.453467 c -0.246416,-0.156017 -1.588962,-0.259832 -2.983438,-0.230701 -1.394477,0.02913 -2.699175,-0.04824 -2.899328,-0.171945 -0.200154,-0.123702 0.06239,-0.217814 0.583438,-0.209139 0.521044,0.0087 1.338256,-0.138591 1.816025,-0.32726 0.548603,-0.21664 0.938757,-0.229632 1.058885,-0.03526 0.104618,0.169275 0.577716,0.312876 1.051329,0.319112 0.789271,0.01039 2.872714,0.9177 2.141114,0.932421 -0.176,0.0035 -0.521612,-0.12121 -0.768025,-0.277227 z m 19.576553,-0.03335 c -0.391309,-0.157438 -1.291309,-0.320463 -2,-0.362279 -1.357936,-0.08013 -1.696589,-0.40955 -0.691273,-0.672445 0.692131,-0.180997 3.882745,0.728482 3.882745,1.106771 0,0.313942 -0.273152,0.297425 -1.191472,-0.07205 z m 8.914038,-0.191922 c -0.33758,-0.381541 -0.350624,-0.579637 -0.05714,-0.867828 0.290794,-0.285549 0.356083,-0.263893 0.277434,0.09202 -0.05657,0.256 0.101142,0.472 0.350476,0.48 0.249332,0.008 0.513332,0.194546 0.586666,0.414546 0.186928,0.560788 -0.630384,0.476941 -1.157434,-0.118739 z M 26.56,10.221114 c 0,-0.186386 -0.13405,-0.2560377 -0.297889,-0.15478 C 25.743336,10.386955 25.585688,9.6902418 26.083523,9.2770757 26.345585,9.0595835 26.5707,8.9352674 26.583779,9.0008175 26.813264,10.151004 26.84847,10.56 26.717992,10.56 26.631096,10.56 26.56,10.407501 26.56,10.221114 Z M 33.919999,10.24 c 0,-0.176 0.144,-0.3200002 0.32,-0.3200002 0.176,0 0.32,0.1440002 0.32,0.3200002 0,0.176 -0.144,0.32 -0.32,0.32 -0.176,0 -0.32,-0.144 -0.32,-0.32 z M 31.2,9.2799999 c -0.115696,-0.1871997 0.216305,-0.32 0.8,-0.32 0.583695,0 0.915695,0.1328003 0.799999,0.32 -0.108774,0.176 -0.468774,0.32 -0.799999,0.32 -0.331226,0 -0.691226,-0.144 -0.8,-0.32 z M 47.619999,9.0614034 c 0.230999,-0.092439 0.506999,-0.08107 0.613335,0.025264 0.106332,0.1063334 -0.08267,0.1819651 -0.42,0.1680704 -0.372784,-0.015354 -0.448608,-0.091181 -0.193335,-0.1933344 z m 4.16,0 c 0.230999,-0.092439 0.506999,-0.08107 0.613335,0.025264 0.106332,0.1063334 -0.08267,0.1819651 -0.42,0.1680704 -0.372784,-0.015354 -0.448608,-0.091181 -0.193335,-0.1933344 z m 5.18,-0.4214035 c 0,-0.176 0.144,-0.32 0.32,-0.32 0.176,0 0.32,0.144 0.32,0.32 0,0.176 -0.144,0.32 -0.32,0.32 -0.176,0 -0.32,-0.144 -0.32,-0.32 z M 23.697866,7.8615269 C 23.37291,7.4699791 23.352475,7.2395247 23.619071,6.9729282 c 0.266597,-0.2665965 0.411992,-0.2243219 0.560624,0.1630054 0.327214,0.8527076 0.0145,1.3236311 -0.481829,0.7255933 z M 55.999999,7.6611144 c 0,-0.1863868 0.144,-0.2498886 0.32,-0.1411145 0.176,0.1087741 0.32,0.2612723 0.32,0.3388854 0,0.077613 -0.144,0.1411146 -0.32,0.1411146 -0.176,0 -0.32,-0.1524986 -0.32,-0.3388855 z M 55.124345,6.4482997 c 0.06826,-0.9061907 2.475654,-0.6236172 2.475654,0.2905856 0,0.1656132 -0.144,0.3011146 -0.32,0.3011146 -0.176,0 -0.32,-0.1963389 -0.32,-0.4363085 0,-0.2537344 -0.301286,-0.4156902 -0.72,-0.3870355 -0.396,0.027101 -0.684,0.223439 -0.64,0.4363085 0.044,0.2128694 -0.05505,0.3870355 -0.220112,0.3870355 -0.165062,0 -0.280054,-0.2662653 -0.255542,-0.5917002 z M 1.4536656,5.1421113 C 1.2170125,4.7591986 1.8189855,4.3797987 2.2452198,4.6432258 2.6030944,4.8644047 2.3681532,5.4399999 1.92,5.4399999 1.764774,5.4399999 1.5549235,5.30595 1.4536656,5.1421113 Z M 3.3082748,4.3155286 c 0.039565,-0.6184592 0.2113888,-1.1224593 0.3818307,-1.12 0.170442,0.00246 0.2954944,0.1484713 0.2778944,0.3244713 -0.0176,0.176 -0.0536,0.68 -0.08,1.12 -0.0264,0.44 -0.1838236,0.8 -0.3498304,0.8 -0.166007,0 -0.2694595,-0.5060121 -0.2298947,-1.1244713 z M 1.44,3.5199999 C 1.331226,3.3439999 1.3947276,3.2 1.5811145,3.2 1.7675015,3.2 1.92,3.3439999 1.92,3.5199999 c 0,0.176 -0.063502,0.32 -0.1411146,0.32 -0.077613,0 -0.2301114,-0.144 -0.3388854,-0.32 z m 48.479999,0 C 49.919999,3.3439999 50.1995,3.2 50.541113,3.2 c 0.341613,0 0.710112,0.1439999 0.818886,0.3199999 0.112167,0.1814906 -0.156678,0.32 -0.621113,0.32 -0.450388,0 -0.818887,-0.144 -0.818887,-0.32 z M 52.187919,2.333489 C 52.004111,1.9300701 51.96711,1.6 52.105698,1.6 c 0.385965,0 1.539124,0.9375339 1.174301,0.954723 -0.176,0.00829 -0.105814,0.1504977 0.155965,0.3160117 0.376909,0.2383035 0.331341,0.2900403 -0.218938,0.248589 C 52.834828,3.0905336 52.37173,2.736908 52.187919,2.333489 Z M 1.76,1.92 C 1.651226,1.744 1.7147276,1.6 1.9011145,1.6 2.0875015,1.6 2.24,1.744 2.24,1.92 2.24,2.096 2.1764984,2.24 2.0988854,2.24 2.0212724,2.24 1.868774,2.096 1.76,1.92 Z M 3.2,1.6188854 C 3.2,1.4532724 3.3439999,1.228774 3.5199999,1.12 c 0.176,-0.108774 0.32,0.026728 0.32,0.3011145 0,0.274387 -0.144,0.4988855 -0.32,0.4988855 C 3.3439999,1.92 3.2,1.7844984 3.2,1.6188854 Z"
         style="fill:#e6e6e6;stroke-width:0.32" />
    </g>
    <text
       id="text134"
       y="14.880323"
       x="24.82584"
       style="font-style:normal;font-weight:normal;font-size:13.3333px;line-height:1.25;font-family:sans-serif;letter-spacing:-1.5px;fill:#e6e6e6;fill-opacity:1;stroke:none;"
       xml:space="preserve"><tspan
         style="font-style:normal;font-variant:normal;font-weight:bold;font-stretch:normal;font-size:13.3333px;font-family:sans-serif;-inkscape-font-specification:'sans-serif Bold';fill:#e6e6e6;"
         y="14.880323"
         x="24.82584"
         id="tspan132"
         sodipodi:role="line">TUFD</tspan></text>
  </g>
</svg>
